<svg width="596" height="1133" viewBox="0 0 596 1133" fill="none" xmlns="http://www.w3.org/2000/svg">
<path d="M320.375 497.875C322.792 493.042 328.5 479.925 332 466.125C332.833 463.958 335.125 459.05 337.625 456.75C340.125 454.45 345.167 456.042 347.375 457.125L352.5 460.625L357.5 466.125L360.75 472.375L365.5 483.625L371.375 497.875L375.75 506.375C379.375 513.5 387.25 529.225 389.75 535.125C392.25 541.025 398.125 549.25 400.75 552.625L399.75 565.75L398.625 586.25C398.625 593.208 398.5 608.8 398 615.5C397.5 622.2 394.208 625.292 392.625 626C391.583 623.458 388.7 617.45 385.5 613.75C379.7 607.35 367.667 605.083 362.375 604.75L338.5 602C330.542 601.042 312.825 596.85 305.625 587.75C296.625 576.375 297.75 563.625 297.75 550.25C297.75 536.875 299.125 531.625 301 527.5C302.875 523.375 307.75 518.125 311 514.125C313.6 510.925 318.333 501.958 320.375 497.875Z" fill="#CE4849"/>
<path d="M275.125 497.875C272.708 493.042 267 479.925 263.5 466.125C262.667 463.958 260.375 459.05 257.875 456.75C255.375 454.45 250.333 456.042 248.125 457.125L243 460.625L238 466.125L234.75 472.375L230 483.625L224.125 497.875L219.75 506.375C216.125 513.5 208.25 529.225 205.75 535.125C203.25 541.025 197.375 549.25 194.75 552.625L195.75 565.75L196.875 586.25C196.875 593.208 197 608.8 197.5 615.5C198 622.2 201.292 625.292 202.875 626C203.917 623.458 206.8 617.45 210 613.75C215.8 607.35 227.833 605.083 233.125 604.75L257 602C264.958 601.042 282.675 596.85 289.875 587.75C298.875 576.375 297.75 563.625 297.75 550.25C297.75 536.875 296.375 531.625 294.5 527.5C292.625 523.375 287.75 518.125 284.5 514.125C281.9 510.925 277.167 501.958 275.125 497.875Z" fill="#CE4849"/>
<path d="M338.361 282.302C328.781 303.643 310.447 326.184 300.25 337.25C300.25 365 308.162 397 313.537 403C318.912 409 313.287 422.375 321.287 433.125C329.287 443.875 329.412 453.75 337.287 447C340.258 444.454 342.837 442.548 345.287 441.255C367.412 425.125 386.162 397 387.162 388.375C387.382 386.794 387.946 382.443 388.05 381.375C388.536 376.399 390.435 372.365 392.376 368.245L392.55 367.875C394.55 363.625 395.05 363.125 397.05 355.125C399.05 347.125 407.037 328.173 410.162 318.548C408.738 309.932 409.958 299.866 411.798 281.704C394.706 287.32 375.956 291.056 358.76 288.699C351.616 287.719 344.739 285.687 338.361 282.302Z" fill="#CE4849"/>
<path d="M256.926 282.302C266.506 303.643 284.84 326.184 295.037 337.25C295.037 365 287.125 397 281.75 403C276.375 409 282 422.375 274 433.125C266 443.875 265.875 453.75 258 447C255.029 444.454 252.45 442.548 250 441.255C227.875 425.125 209.125 397 208.125 388.375C207.905 386.794 207.341 382.443 207.237 381.375C206.751 376.399 204.852 372.365 202.911 368.245L202.737 367.875C200.737 363.625 200.237 363.125 198.237 355.125C196.237 347.125 188.25 328.173 185.125 318.548C186.549 309.932 185.329 299.866 183.489 281.704C200.581 287.32 219.331 291.056 236.527 288.699C243.672 287.719 250.548 285.687 256.926 282.302Z" fill="#CE4849"/>
<path d="M325.713 92.7498C324.588 91.3748 315.338 92.3748 306.963 91.8748C301.338 91.8748 297.713 87.9998 297.713 102.75C297.713 165.625 312.963 163.5 312.963 166.375C312.963 170.25 303.088 176.75 300.713 203.375C298.813 224.675 297.921 303.417 297.713 340.125C298.531 339.281 299.44 338.319 300.426 337.25C310.623 326.184 328.957 303.643 338.537 282.302C338.638 282.076 338.738 281.85 338.838 281.625C342.771 272.7 347.185 263.248 351.384 254.305C361.062 233.69 369.596 215.778 368.463 213.25C368.316 212.923 368.168 212.621 368.02 212.343C366.856 210.159 365.693 209.449 365.213 209.375C368.463 205.417 378.163 196.9 390.963 194.5C406.918 191.508 427.971 190.63 420.03 187.03C419.206 186.698 418.355 186.356 417.476 186C402.976 180.125 397.851 182.5 383.726 177.625C369.601 172.75 357.726 167.375 350.851 163.375L341.713 157.5C336.282 153.96 332.111 148.539 329.062 142.375C324.251 132.65 320.983 121.951 321.213 113C321.535 100.432 324.837 94.7082 325.713 93.3533C325.856 93.1316 325.871 92.9431 325.713 92.7498Z" fill="#CE4849"/>
<path d="M269.548 92.7498C270.673 91.3748 279.923 92.3748 288.298 91.8748C293.923 91.8748 297.548 87.9998 297.548 102.75C297.548 165.625 282.298 163.5 282.298 166.375C282.298 170.25 292.173 176.75 294.548 203.375C296.448 224.675 297.34 303.417 297.548 340.125C296.73 339.281 295.82 338.319 294.835 337.25C284.638 326.184 266.304 303.643 256.724 282.302C256.623 282.076 256.522 281.85 256.423 281.625C252.49 272.7 248.076 263.248 243.877 254.305C234.199 233.69 225.665 215.778 226.798 213.25C226.945 212.923 227.093 212.621 227.241 212.343C228.405 210.159 229.567 209.449 230.048 209.375C226.798 205.417 217.098 196.9 204.298 194.5C188.342 191.508 167.29 190.63 175.231 187.03C176.055 186.698 176.906 186.356 177.785 186C192.285 180.125 197.41 182.5 211.535 177.625C225.66 172.75 237.535 167.375 244.41 163.375L253.548 157.5C258.979 153.96 263.15 148.539 266.199 142.375C271.009 132.65 274.277 121.951 274.048 113C273.726 100.432 270.424 94.7082 269.548 93.3533C269.405 93.1316 269.39 92.9431 269.548 92.7498Z" fill="#CE4849"/>
<path d="M256.424 281.625C256.523 281.85 256.624 282.076 256.725 282.302C266.305 303.643 284.639 326.184 294.836 337.25C295.821 338.319 296.731 339.281 297.549 340.125C297.382 310.72 296.777 254.342 295.566 222.125L230.049 209.375C229.568 209.449 228.406 210.159 227.242 212.343C227.094 212.621 226.946 212.923 226.799 213.25C225.666 215.778 234.2 233.69 243.878 254.305C248.077 263.248 252.491 272.7 256.424 281.625Z" fill="#CE4849"/>
<path d="M297.549 340.125C296.731 339.281 295.821 338.319 294.836 337.25C284.639 326.184 266.305 303.643 256.725 282.302C256.624 282.076 256.523 281.85 256.424 281.625C252.491 272.7 248.077 263.248 243.878 254.305C234.2 233.69 225.666 215.778 226.799 213.25C226.946 212.923 227.094 212.621 227.242 212.343C228.406 210.159 229.568 209.449 230.049 209.375L295.566 222.125C296.777 254.342 297.382 310.72 297.549 340.125ZM297.549 340.125C298.367 339.281 299.276 338.319 300.262 337.25" stroke="black" stroke-linecap="round" stroke-linejoin="round"/>
<path d="M338.838 281.625C338.738 281.85 338.638 282.076 338.537 282.302C328.957 303.643 310.623 326.184 300.426 337.25C299.44 338.319 298.531 339.281 297.713 340.125C297.88 310.72 298.485 254.342 299.696 222.125L365.213 209.375C365.693 209.449 366.856 210.159 368.02 212.343C368.168 212.621 368.316 212.923 368.463 213.25C369.596 215.778 361.062 233.69 351.384 254.305C347.185 263.248 342.771 272.7 338.838 281.625Z" fill="#CE4849"/>
<path d="M297.713 340.125C298.531 339.281 299.44 338.319 300.426 337.25C310.623 326.184 328.957 303.643 338.537 282.302C338.638 282.076 338.738 281.85 338.838 281.625C342.771 272.7 347.185 263.248 351.384 254.305C361.062 233.69 369.596 215.778 368.463 213.25C368.316 212.923 368.168 212.621 368.02 212.343C366.856 210.159 365.693 209.449 365.213 209.375L299.696 222.125C298.485 254.342 297.88 310.72 297.713 340.125ZM297.713 340.125C296.895 339.281 295.985 338.319 295 337.25" stroke="black" stroke-linecap="round" stroke-linejoin="round"/>
<path d="M269.548 92.7498C270.673 91.3748 279.923 92.3748 288.298 91.8748C293.923 91.8748 297.548 87.9998 297.548 102.75C297.548 165.625 282.298 163.5 282.298 166.375C277.627 171 215.25 197.5 204.298 194.5C188.342 191.508 167.29 190.63 175.231 187.03C176.055 186.698 176.906 186.356 177.785 186C192.285 180.125 197.41 182.5 211.535 177.625C225.66 172.75 237.535 167.375 244.41 163.375L253.548 157.5C258.979 153.96 263.15 148.539 266.199 142.375C271.009 132.65 274.277 121.951 274.048 113C273.726 100.432 270.424 94.7082 269.548 93.3533C269.404 93.1316 269.39 92.9431 269.548 92.7498Z" fill="#CE4849"/>
<path d="M175.298 187C167.173 190.625 188.298 191.5 204.298 194.5C215.25 197.5 277.627 171 282.298 166.375C282.298 163.5 297.548 165.625 297.548 102.75C297.548 87.9998 293.923 91.8748 288.298 91.8748C279.923 92.3748 270.673 91.3748 269.548 92.7498C269.39 92.9431 269.404 93.1316 269.548 93.3533C270.424 94.7082 273.726 100.432 274.048 113C274.277 121.951 271.009 132.65 266.199 142.375C263.15 148.539 258.979 153.96 253.548 157.5L244.41 163.375C237.535 167.375 225.66 172.75 211.535 177.625C197.41 182.5 192.285 180.125 177.785 186C176.796 186.401 175.843 186.784 174.923 187.154" stroke="black" stroke-linecap="round" stroke-linejoin="round"/>
<path d="M325.749 92.7498C324.624 91.3748 315.374 92.3748 306.999 91.8748C301.374 91.8748 297.749 87.9998 297.749 102.75C297.749 165.625 312.999 163.5 312.999 166.375C317.67 171 380.047 197.5 390.999 194.5C406.955 191.508 428.007 190.63 420.066 187.03C419.242 186.698 418.391 186.356 417.512 186C403.012 180.125 397.887 182.5 383.762 177.625C369.637 172.75 357.762 167.375 350.887 163.375L341.749 157.5C336.318 153.96 332.147 148.539 329.098 142.375C324.288 132.65 321.02 121.951 321.249 113C321.571 100.432 324.873 94.7082 325.749 93.3533C325.892 93.1316 325.907 92.9431 325.749 92.7498Z" fill="#CE4849"/>
<path d="M419.999 187C428.124 190.625 406.999 191.5 390.999 194.5C380.047 197.5 317.67 171 312.999 166.375C312.999 163.5 297.749 165.625 297.749 102.75C297.749 87.9998 301.374 91.8748 306.999 91.8748C315.374 92.3748 324.624 91.3748 325.749 92.7498C325.907 92.9431 325.892 93.1316 325.749 93.3533C324.873 94.7082 321.571 100.432 321.249 113C321.02 121.951 324.288 132.65 329.098 142.375C332.147 148.539 336.318 153.96 341.749 157.5L350.887 163.375C357.762 167.375 369.637 172.75 383.762 177.625C397.887 182.5 403.012 180.125 417.512 186C418.501 186.401 419.454 186.784 420.374 187.154" stroke="black" stroke-linecap="round" stroke-linejoin="round"/>
<path d="M297.75 102.75C297.75 87.9998 301.375 91.8748 307 91.8748C315.375 92.3748 324.625 91.3748 325.75 92.7498C325.908 92.9431 325.893 93.1316 325.75 93.3533M297.75 102.75C297.75 165.625 313 163.5 313 166.375C313 170.25 303.125 176.75 300.75 203.375C298.85 224.675 297.958 303.417 297.75 340.125M297.75 102.75C297.75 87.9998 294.125 91.8748 288.5 91.8748C280.125 92.3748 270.875 91.3748 269.75 92.7498C269.592 92.9431 269.607 93.1316 269.75 93.3533M297.75 102.75C297.75 165.625 282.5 163.5 282.5 166.375C282.5 170.25 292.375 176.75 294.75 203.375C296.65 224.675 297.542 303.417 297.75 340.125M297.75 340.125C298.568 339.281 299.477 338.319 300.463 337.25M297.75 340.125C296.932 339.281 296.023 338.319 295.037 337.25M420 187C428.125 190.625 407 191.5 391 194.5C378.2 196.9 368.5 205.417 365.25 209.375C365.731 209.449 366.893 210.159 368.057 212.343M337.375 122.375V94.25C337.375 91.8748 328.343 90.7065 325.75 93.3533M325.75 93.3533C324.874 94.7082 321.572 100.432 321.25 113C321.02 121.951 324.289 132.65 329.099 142.375M325.75 93.3533C328 96 330.948 122.125 329.099 142.375M329.099 142.375C332.148 148.539 336.319 153.96 341.75 157.5M439.5 197.625C434.5 192.5 425.125 195.875 423.25 197.625C421.375 199.375 415.75 192.25 399.25 196.625C385.474 200.278 373.353 202.711 376.493 209.016M338.574 282.302C338.675 282.076 338.776 281.85 338.875 281.625C342.808 272.7 347.222 263.248 351.421 254.305M338.574 282.302C328.994 303.643 310.66 326.184 300.463 337.25M338.574 282.302C344.952 285.687 351.828 287.719 358.973 288.699M412.01 281.704C412.09 281.678 412.17 281.651 412.25 281.625M412.01 281.704C412.132 280.505 412.256 279.271 412.382 278M412.01 281.704C409.452 306.959 408.092 316.56 413.375 328.375M412.01 281.704C394.919 287.32 376.169 291.056 358.973 288.699M414.5 254.125C414.228 257.667 413.952 261.008 413.677 264.166M412.382 278C423.875 295 439.875 310.625 443.625 312.625C444.286 312.978 445.188 312.949 446.204 312.625M412.382 278C412.798 273.814 413.236 269.226 413.677 264.166M439.625 262.477C449.442 267.054 458.073 271.347 461.875 278M439.625 262.477C443.542 271.693 452.125 291.55 455.125 297.25C457.128 301.056 454.78 305.754 451.585 309M439.625 262.477C432.709 259.253 425.205 255.888 418.386 251.458M451.585 309C472.125 337.75 479.25 356 478.875 370.625C478.7 377.435 478.797 382.483 479.354 385M451.585 309C449.854 310.759 447.874 312.092 446.204 312.625M487.875 344C490.5 356.875 487.375 373.25 483.375 382.5C481.287 387.328 480.051 387.865 479.399 385.196M446.204 312.625C451.585 338.125 465.125 359.75 463.5 375C462.376 385.544 459.819 389.993 459.876 394.875M434.875 371.625C439.125 377.875 440.875 384.5 442.875 388.625C444.875 392.75 453.75 398.875 456.5 403.5C459.25 408.125 463.5 406.5 461.875 402.25C460.448 399.319 459.901 397.054 459.876 394.875M479.354 385C479.368 385.067 479.383 385.132 479.399 385.196M479.354 385C479.369 385.065 479.384 385.131 479.399 385.196M479.399 385.196C483.357 402.294 480.979 408.008 475.5 410C473.704 410.653 472.249 412.189 471.114 414M471.114 414C469.469 416.625 468.495 419.827 468.125 421.75M471.114 414C473.718 420.843 479.697 436.286 486.405 454.625M486.405 454.625C495.502 479.494 501.816 498.568 506.996 519.86M486.405 454.625C480.27 431.459 490.844 404.509 498.883 382.5M506.996 519.86C506.998 519.865 506.999 519.87 507 519.875M506.996 519.86C505.037 519.245 503.474 518.037 502.625 516M506.996 519.86C511.385 521.237 517.763 519.644 522.566 517.756M498.883 382.5C500.083 379.213 501.227 376.037 502.25 373M498.883 382.5C501.475 392.026 503.078 402.058 504.116 412M518.066 519.26C514.399 508.094 510.5 491.975 508 475.875C505.764 461.473 506.728 437.02 504.116 412M539.691 501.125C542.066 509.25 531.816 513.5 525.191 516.625C524.397 517 523.512 517.383 522.566 517.756M504.116 412C514 447.625 512.441 483.761 522.566 517.756M459.876 394.875C460.375 388.875 465.583 386.458 468.125 386M300.463 337.25C300.463 365 308.375 397 313.75 403C319.125 409 313.5 422.375 321.5 433.125C329.5 443.875 329.625 453.75 337.5 447M337.5 447C340.471 444.454 343.05 442.548 345.5 441.255M337.5 447C330.746 454.598 332.487 464.292 331.27 469.454M345.5 441.255C349.544 439.122 353.235 438.66 357.75 439.75C365 441.5 366 439.5 370.125 443.25C373.194 446.04 380.554 453.813 385.408 460.75M345.5 441.255C367.625 425.125 386.375 397 387.375 388.375M331.27 469.454C331.226 469.642 331.178 469.824 331.125 470M331.27 469.454C331.222 469.634 331.174 469.815 331.125 470M331.27 469.454C332.958 463.158 334.154 460.299 336.375 457.923M331.125 470C329.625 475 323 494.25 317.5 503.625C314.171 509.299 310.384 515.707 306.25 519.881M385.408 460.75C372.94 446.375 365.875 443.75 359.125 443.75C352.375 443.75 349.375 448.125 342.375 453.125C339.922 454.877 338.159 456.138 336.781 457.506M385.408 460.75C386.502 462.315 387.47 463.837 388.232 465.25M306.25 519.881C303.554 522.603 300.71 524.375 297.75 524.375C294.79 524.375 291.946 522.603 289.25 519.881M306.25 519.881C299.25 527.75 297.75 534.375 297.75 548.5M297.75 548.5C297.75 559.081 296.972 574.14 303.522 584.875M297.75 548.5C297.75 534.375 296.25 527.75 289.25 519.881M297.75 548.5C297.75 559.081 298.528 574.14 291.978 584.875M392.875 754.5C394.25 737.625 397 695.575 397 662.375C397 646.803 395.574 634.926 392.617 626M392.617 626C387.694 611.138 378.151 606.952 364.25 605C362.838 604.802 361.464 604.62 360.125 604.451M392.617 626C400 623.375 398.625 602.875 398.625 588C398.625 580.309 399.669 565.693 400.746 552.875M402.375 534.875C402.129 537.388 401.834 540.512 401.519 544C401.269 546.77 401.006 549.77 400.746 552.875M360.125 604.451C347.06 602.806 337.276 602.398 327.75 599.878C322.86 598.584 318.038 596.734 312.875 593.875C308.732 591.581 305.716 588.47 303.522 584.875M360.125 604.451C364.887 640.349 365.644 694.124 363.102 727.5M351 780.226C351.75 778.476 355.625 769.35 360.125 750.25C361.377 744.937 362.375 737.054 363.102 727.5M351 780.226C348.298 779.878 345.345 780.004 343 780.625C338.75 781.75 341.5 785.25 341.375 793.125M351 780.226C353.195 780.508 355.224 781.103 356.625 782C359.75 784 363.375 785.625 364.75 785.625M326.25 784.125C326.25 772.75 333.5 766 334.75 753.625C335.521 745.989 335.531 743.207 334.75 737.087M303.522 584.875C304.447 603.185 313.837 637.69 321.403 662.375M327.068 680.125C329.156 697.197 331.309 711.808 332.375 719.875C333.476 728.204 334.265 733.288 334.75 737.087M327.068 680.125C325.468 675.34 323.506 669.237 321.403 662.375M327.068 680.125C325.135 664.321 323.258 646.408 322.351 629.625M321.403 662.375C321.281 648.475 321.984 634.75 322.351 629.625M322.125 598.116C321.568 607.433 321.737 618.27 322.351 629.625M334.75 737.087C327.068 705.375 305.125 656.875 302.875 644.75M363.102 727.5C362.82 752.6 370.75 770.875 374.75 776.875M336.25 857.375C343.5 828.75 341.25 801 341.375 793.125M341.375 793.125C349.075 806.225 357.083 847.417 360.125 866.375M364.75 785.625C366.125 785.625 370.625 776 380.125 776.125C387.725 776.225 389.625 778.333 389.625 779.375C389.125 782.5 386.675 784.05 386.875 789.75C386.915 790.9 387.083 792.01 387.347 793.125M364.75 785.625L366.375 821.5M387.347 793.125C388.72 798.918 392.714 804.82 395.125 816.875M387.347 793.125C380.125 807 374.75 835.75 374.75 864M333.375 938.125C341.625 967.875 351.5 971 356.375 970.75C361.25 970.5 368.762 958.875 368.274 943.75C368.183 940.935 368.091 938.4 368 936.125M368 936.125C367.589 925.873 368.171 917.421 368 916.125M368 936.125C368.753 954.875 379.125 962.375 383.125 962.5C387.125 962.625 393.5 960.25 397 938.125M342 970.75C352.75 1009.88 357.625 1061.75 349.875 1092.25M346.25 1080.5C346.625 1097.25 354.25 1094.38 358.375 1094.25C360.293 1094.19 363.049 1092.7 365.625 1090.68M381.625 1067C379.083 1070.88 373.65 1079.5 372.25 1083C372.106 1083.36 371.919 1083.74 371.696 1084.12M365.625 1090.68C365.216 1082.9 365.647 1070.31 367.022 1055.75M365.625 1090.68C368.132 1088.72 370.469 1086.25 371.696 1084.12M367.022 1055.75C367.151 1054.39 367.288 1053.01 367.433 1051.62M367.022 1055.75C367.119 1054.38 367.257 1053 367.433 1051.62M367.433 1051.62C370.959 1017.79 379.404 975.22 394 957.25M367.433 1051.62C370.135 1030.32 381.71 1007.48 387.5 998.25M371.696 1084.12C371.141 1068.12 381.25 1050.25 382.375 1035.75M384.875 1084.12C378.625 1089.5 368.25 1101.25 362.5 1115.62C368 1109.12 371.5 1109.88 375.25 1104.88C378.25 1100.88 382.917 1094.38 384.875 1091.62M384.875 1125.12C386.875 1119.12 380.5 1115.62 382.875 1112.12C383.981 1110.49 385.44 1107.62 386.431 1104.49M386.75 1094.25C387.332 1095.44 387.562 1096.86 387.542 1098.38M387.542 1098.38C394.125 1106.62 404.625 1110.62 407.875 1110.25M387.542 1098.38C387.525 1099.62 387.339 1100.94 387.042 1102.25M387.042 1102.25C394.875 1109.75 399.625 1111.62 401.75 1112.12C403.45 1112.53 407.292 1113.62 409 1114.12M387.042 1102.25C386.871 1103 386.664 1103.75 386.431 1104.49M386.431 1104.49C390.286 1110.6 399.167 1116.12 403.125 1118.12M336.375 457.923C336.507 457.783 336.642 457.644 336.781 457.506M336.375 457.923C336.506 457.776 336.641 457.637 336.781 457.506M336.781 457.506C342.396 452.225 355.253 459.301 360.375 471.375C365.625 483.75 371.875 499.75 376.25 507.25M376.25 507.25C380.625 514.75 391.366 542.125 400.746 552.875M376.25 507.25C376.25 492 375.463 472.577 388.232 465.25M388.232 465.25C388.631 465.992 388.975 466.703 389.25 467.375M508 530C509.294 530.522 511.111 530.661 513.25 530.498M513.25 530.498C515.024 530.362 517.02 530.019 519.125 529.513M513.25 530.498C516.591 544.548 519.042 563.06 520.191 573.625M519.125 529.513C519.904 529.325 520.697 529.116 521.5 528.886M519.125 529.513C518.74 540.4 522.546 549.931 525.941 563.5M521.5 528.886C522.89 528.488 524.307 528.031 525.721 527.525M521.5 528.886C525.472 542.761 528.362 553.832 530.379 562.125M525.721 527.525C527.418 526.918 529.112 526.242 530.75 525.518M525.721 527.525C528.156 535.741 530.245 542.633 532.024 548.375M530.75 525.518C532.689 524.66 534.551 523.734 536.25 522.773M530.75 525.518C535.769 533.5 541.012 548.288 544.38 559.125M536.25 522.773C538.583 529.349 545.175 547.125 552.875 565.625M536.25 522.773C536.81 522.456 537.353 522.136 537.875 521.813M537.875 521.813C539.572 520.763 541.049 519.686 542.2 518.625M537.875 521.813C546.854 535.543 554.386 550.432 558.954 560.375M542.2 518.625C542.934 517.948 543.536 517.278 543.978 516.625M542.2 518.625C542.914 520.086 543.776 521.818 544.75 523.735M543.978 516.625C544.697 515.564 544.993 514.548 544.75 513.625M543.978 516.625C550.196 523.025 561.75 529.625 566.75 532.125M544.75 523.735C548.155 530.442 552.925 539.428 557.517 547.125M544.75 523.735C546.998 525.591 551.327 528.802 556.25 531.714M566.75 536.75C565.355 536.274 563.928 535.688 562.5 535.028M562.5 535.028C564.3 539.44 566.917 540.181 568 540M562.5 535.028C560.385 534.049 558.268 532.907 556.25 531.714M520.191 573.625C520.366 575.243 520.512 576.674 520.625 577.875M520.191 573.625C514.66 571.75 511.25 564.75 509.5 555M569.25 525.518C572.25 529.502 573.75 534.666 574.125 536.75M565.5 559.125C563.154 556.193 560.37 551.908 557.517 547.125M557.517 547.125C554.503 540.225 555.417 533.976 556.25 531.714M558.954 560.375C560.491 563.721 561.692 566.507 562.5 568.5M558.954 560.375C558.053 560.917 556.375 564.125 556.875 572.625M532.024 548.375C537.276 565.331 539.815 572.255 540.5 573.625M532.024 548.375C537.875 553.125 535.884 544.625 544.38 559.125M546.875 567.625C546.257 565.361 545.405 562.426 544.38 559.125M528.75 576.875C527.932 571.961 526.955 567.551 525.941 563.5M525.941 563.5C527.088 561.5 529.377 561.75 530.379 562.125M530.379 562.125C532.575 571.16 533.734 576.898 534.125 579.375M359.778 283.182C356.013 284.086 354.776 280.793 353.778 277.5C352.958 274.796 352.408 265.267 351.421 254.305M359.778 283.182C360.729 282.953 361.842 282.457 363.153 281.625C368.698 278.106 389.257 268.217 403.403 260.577M359.778 283.182C358.913 284.686 358.565 286.717 358.973 288.699M403.403 260.577C405.838 259.262 408.082 258.013 410.028 256.875C412.772 255.27 415.614 253.44 418.386 251.458M403.403 260.577C408.667 260.272 412.111 261.406 413.677 264.166M567.388 544.875C569.138 544.875 572.888 546.5 574.513 547.625C576.138 548.75 576.763 550.625 579.763 552.875C582.763 555.125 588.138 556.375 592.013 554.875C593.349 554.358 594.165 553.484 594.599 552.5C595.424 550.629 594.871 548.358 593.888 547.375C592.388 545.875 590.263 544.5 589.138 543.375C588.916 543.153 588.753 542.947 588.625 542.746C588.102 541.926 588.166 541.205 587.263 540C586.138 538.5 583.888 536.375 582.138 535C580.388 533.625 576.638 531.875 574.763 530.75C572.888 529.625 571.513 527.625 569.763 526.375C568.013 525.125 563.638 522.5 559.138 520.625C557.846 520.083 555.013 518.925 554.013 518.625C552.763 518.25 546.263 516.125 545.138 514.625C544.013 513.125 534.013 486.375 529.888 473C525.763 459.625 522.888 435 515.763 409.375C508.638 383.75 502.138 372.875 496.638 362.625C491.138 352.375 488.888 350.375 486.763 340C485.061 331.691 480.313 318.974 477.205 310C476.432 307.768 475.761 305.768 475.263 304.125C473.263 297.525 465.43 283.875 461.763 277.875C461.555 274.792 461.138 266.425 461.138 257.625C461.138 246.625 460.138 225.375 449.388 209.625C439.371 194.95 432.936 192.212 420.375 187.154C419.455 186.784 418.502 186.401 417.513 186C403.013 180.125 397.888 182.5 383.763 177.625C369.638 172.75 357.763 167.375 350.888 163.375C344.013 159.375 337.638 155.25 337.388 152.25C337.322 151.453 337.29 148.842 337.281 145.375C337.262 138.403 337.332 127.97 337.388 121.875C339.875 118.75 340.388 110.375 340.888 107.25C341.388 104.125 341.263 101.5 341.638 102.375C342.013 103.25 342.513 104.75 345.513 105.125C348.513 105.5 350.763 98.125 352.888 94.5C355.013 90.875 356.513 82.625 356.763 76.75C356.821 75.3916 356.725 74.2337 356.509 73.25C355.792 69.9792 353.752 68.6344 351.638 68.25C349.438 67.85 347.721 70.5 347.138 71.875C347.93 63.3333 348.888 44.3 346.388 36.5C343.263 26.75 329.013 0.5 297.763 0.5M567.388 544.875C568.596 547.542 571.363 553.85 572.763 557.75C574.513 562.625 577.388 574.5 578.513 579C579.638 583.5 581.638 591.875 582.638 597.125C583.638 602.375 584.888 609.375 585.013 611.875C585.095 613.518 585.825 617.807 584.613 620.625C583.98 622.095 582.82 623.164 580.763 623.25C578.564 623.342 576.936 622.292 575.743 620.875C573.682 618.427 572.921 614.883 572.763 614.25C572.599 613.595 572.006 610.044 571.476 607.25C571.197 605.779 570.935 604.517 570.763 604C570.399 602.907 568.708 597.04 566.947 591.422C566.291 589.326 565.624 587.266 565.013 585.5C562.763 579 561.888 576.625 561.388 575.75C560.888 574.875 560.013 576 560.263 576.375C560.513 576.75 561.888 579.375 562.513 582C563.138 584.625 566.888 597.875 567.763 602.25C568.638 606.625 568.513 608.625 569.263 612.75C570.013 616.875 571.888 623.375 571.888 628.5C571.888 629.889 571.805 631.15 571.615 632.25C571.103 635.207 569.814 637 567.263 637C564.305 637 562.686 635.304 561.954 634.25C561.82 634.057 561.715 633.885 561.638 633.75C561.138 632.875 559.638 629.375 559.013 626.625C558.388 623.875 557.263 617.125 556.763 615.125C556.263 613.125 552.138 594.875 550.763 590.875C549.388 586.875 548.263 583 547.638 582.375C547.013 581.75 545.763 582.375 546.138 583.125C546.513 583.875 550.388 596.875 551.638 603.125C552.888 609.375 553.013 613 554.138 617.375C554.805 619.967 556.481 625.632 556.227 630C556.053 633.003 554.967 635.393 552.013 635.75C549.869 636.009 548.141 634.781 546.75 632.843C543.437 628.226 542.041 619.576 541.513 617.375C540.763 614.25 538.138 606 537.638 603.625C537.138 601.25 535.388 593.75 534.388 590.875C533.388 588 532.013 582.75 530.638 583.125C529.263 583.5 532.138 590.875 532.638 592.625C533.138 594.375 533.888 599.375 534.388 601.25C534.66 602.271 535.452 604.998 536.176 607.875C536.783 610.281 537.342 612.792 537.513 614.5C537.613 615.501 537.678 616.475 537.637 617.375C537.527 619.847 536.629 621.758 533.513 622.125C529.263 622.625 526.638 612 526.013 610.375C525.388 608.75 521.013 595.25 520.638 593.5C520.263 591.75 517.388 584 516.013 581.25C515.328 579.881 514.334 576.808 513.369 573.25C512.396 569.661 511.453 565.577 510.888 562.25C509.763 555.625 507.388 548.125 508.263 542C509.138 535.875 509.638 533.25 507.763 528.75C505.888 524.25 503.763 518.25 502.013 514.625C500.263 511 494.013 497.25 475.013 472.25C457.193 448.803 445.531 422.607 441.47 405.625C441.201 404.5 440.965 403.416 440.763 402.375C438.163 388.975 436.013 376.792 435.263 372.375C423.952 353.186 415.305 337.074 410.243 319.125C407.118 328.75 399.263 347.125 397.263 355.125C395.263 363.125 394.763 363.625 392.763 367.875L392.589 368.245C390.648 372.365 388.748 376.399 388.263 381.375C388.159 382.443 387.978 383.794 387.758 385.375C387.365 388.198 386.846 391.755 386.405 395.75C385.909 400.252 385.513 405.31 385.513 410.5C385.513 422.875 390.138 433.5 389.888 445.125C389.807 448.869 389.701 451.926 389.594 454.5C389.368 459.919 389.138 463.199 389.138 466.25C389.138 470.75 394.138 479.25 396.388 496.5C398.107 509.676 399.752 515.924 400.768 522.875C401.082 525.024 401.336 527.241 401.513 529.75C401.86 531.895 402.249 534.378 402.667 537.125C405.702 557.11 410.199 591.047 410.375 610.125C410.625 637.25 408.375 669.75 408.125 680.125C407.875 690.5 406.5 704.875 403 717.875C402.667 719.11 402.309 720.362 401.932 721.625C398.344 733.654 393.101 746.664 392.875 755.375C392.625 765 396 767.125 396.25 782C396.5 796.875 395.625 812.125 395.375 816.125C395.125 820.125 405.125 866.375 403.5 887.625C402.345 902.727 398.665 927.237 395.6 946.75C394.352 954.693 393.207 961.809 392.375 967.125C389.5 985.5 380.992 1038.2 380.951 1054.38C380.951 1059.12 382.25 1073.5 382.875 1074.88C383.5 1076.25 385 1079.65 385 1082.62C385 1085.5 383.625 1088.38 385 1091.62C386.375 1094.88 391.974 1098.98 393 1099.75C395.943 1101.95 397.474 1103.52 402.875 1106C409.125 1108.88 413.5 1115.25 402.875 1118.25C392.25 1121.25 385.01 1124.88 385.01 1124.88C384.25 1127.5 382.075 1130.38 377.625 1130.88C365.343 1132.25 348.581 1132.51 343.875 1123.92C343.5 1122.67 339.75 1113.38 343 1107.62C344.175 1105.55 345.056 1104.14 345.625 1102.99M567.388 544.875L565.25 541M345.625 1102.99C345.909 1102.42 346.116 1101.91 346.242 1101.42M345.625 1102.99C345.852 1102.48 346.057 1101.95 346.242 1101.42M346.242 1101.42C346.563 1100.17 346.986 1095.39 346.242 1093.5C345.498 1091.61 345.625 1087.38 345.625 1084.12C345.625 1081.62 347.249 1076.26 347.779 1073.25C348.397 1069.75 347.625 1069.38 348 1062.62C348.375 1055.88 348.25 1033.62 348 1019.12C347.75 1004.62 343.625 971 336.25 948.25C334.193 941.903 332.738 935.829 331.741 930C329.162 914.935 329.634 901.507 330.625 889.25C332 872.25 340 850.625 337 834.75C334 818.875 328.25 808.875 327 799.125C325.75 789.375 326.375 767.5 325.25 763.75C324.936 762.703 324.437 760.213 323.869 757C322.404 748.705 320.485 735.586 320.125 730C319.836 725.526 317.215 713.554 314.569 701.875C314.118 699.881 313.665 697.896 313.224 695.959L312.92 694.625C311.586 688.771 310.379 683.443 309.625 679.75C307.125 667.5 301.445 637.375 301.375 636.25C301.305 635.125 297.75 621.875 297.75 572.25C297.75 621.875 294.195 635.125 294.125 636.25C294.055 637.375 288.375 667.5 285.875 679.75C285.121 683.443 283.914 688.771 282.58 694.625L282.276 695.959C281.835 697.896 281.382 699.881 280.931 701.875C278.285 713.554 275.664 725.526 275.375 730C275.015 735.586 273.096 748.705 271.631 757C271.063 760.213 270.564 762.703 270.25 763.75C269.125 767.5 269.75 789.375 268.5 799.125C267.25 808.875 261.5 818.875 258.5 834.75C255.5 850.625 263.5 872.25 264.875 889.25C265.866 901.507 266.338 914.935 263.759 930C262.762 935.829 261.307 941.903 259.25 948.25C251.875 971 247.75 1004.62 247.5 1019.12C247.25 1033.62 247.125 1055.88 247.5 1062.62C247.875 1069.38 247.103 1069.75 247.721 1073.25C248.251 1076.26 249.875 1081.62 249.875 1084.12C249.875 1087.38 250.002 1091.61 249.258 1093.5C248.514 1095.39 248.937 1100.17 249.258 1101.42M527.598 573.73C528.541 577.033 530.052 582.047 527.598 583.48C529.481 583.757 528.508 586.073 528.799 588.39C529.055 590.437 531.934 596.138 531.139 598.514M531.139 598.514C531.033 598.828 530.864 599.084 530.616 599.265M531.139 598.514C532.39 599.456 531.405 601.63 531.675 604.089C531.945 606.548 534.783 609.581 533.211 613.393C531.639 617.205 530.007 610.268 529.745 609.471C529.484 608.675 529.004 605.066 528.018 604.037C527.033 603.007 526.957 600.09 527.598 600.025C526.767 599.762 526.164 599.012 526.03 597.806C525.757 595.365 524.317 590.51 523.652 589.022C522.986 587.534 521.428 584.748 522.661 583.355C519.019 582.034 521.629 574.929 521.728 570.387M540.25 573.112C541.231 575.731 546.419 579.748 542.286 582.104C544.172 582.657 544.539 585.143 544.1 588.42C543.66 591.696 545.733 597.092 546.206 598.142C546.628 599.077 549.086 601.844 546.313 603.124C547.629 603.509 547.962 605.04 548.339 607.755C548.715 610.471 550.382 614.183 550.381 616.819C550.381 618.105 551.97 623.943 550.381 624.355C549.19 624.664 547.799 618.782 546.911 617.105C545.786 614.98 540.661 603.855 542.799 603.546C540.357 602.866 540.43 599.402 540.25 595.354C540.027 590.339 534.198 585.728 536.161 582.586C533.113 582.488 534.028 579.64 534.195 579.074M552.786 565.382C556.141 571.428 561.008 577.633 556.845 579.417C556.714 579.473 556.584 579.528 556.456 579.582C559.26 578.519 559.402 583.178 559.364 584.184C559.325 585.214 561.451 594.284 562.252 595.558C563.043 596.815 565.016 598.796 562.56 599.744M546.161 565.382C546.653 566.826 549.245 574.214 549.398 578.164C549.484 580.374 550.502 581.061 552.11 580.926C550.25 582.847 552.095 585.456 552.587 586.901C553.078 588.345 557.405 592.977 557.074 597.698C556.891 600.316 557.763 600.958 559.021 600.852C557.999 603.923 561.256 610.112 562.019 612.855C562.729 615.407 563.563 619.756 564.264 620.48C564.965 621.204 565.049 626.98 566.688 626.98C568.327 626.98 566.544 621.143 566.688 619.753C566.832 618.363 566.688 614.105 565.988 612.264C565.419 610.768 564.356 604.891 564.264 602.521C564.184 600.482 563.597 599.527 562.56 599.744M562.56 599.744C562.526 599.757 562.492 599.77 562.456 599.783M565.532 558.981C570.451 564.962 572.779 568.903 570.081 570.356C571.631 570.37 572.11 568.541 573.161 574.606C574.212 580.671 573.911 580.231 575.328 583.331C576.629 586.178 578.717 587.863 576.838 589.293C578.285 588.873 578.033 592.184 578.286 593.73C578.538 595.276 580.879 603.121 580.536 604.855C580.193 606.589 582.786 614.231 580.536 614.23C578.286 614.23 577.556 606.855 576.536 605.73C575.516 604.605 574.305 595.596 574.036 593.73C573.767 591.864 573.086 590.853 573.523 590.363C571.962 590.266 571.293 588.962 571.036 587.257C570.678 584.879 568.114 580.067 567.036 578.231C565.958 576.396 564.071 572.661 565.532 571.894C563.363 572.412 563.026 571.732 562.489 568.487M566.612 532.166C567.975 532.341 569.5 533.05 569.678 534.414C569.725 534.775 569.644 535.11 569.498 535.445C569.775 535.157 571.747 532.883 573.515 535.804C575.282 538.725 576.196 538.239 577.581 539.193C578.965 540.147 584.414 541.328 584.236 542.863C584.214 543.049 584.159 543.271 584.076 543.515C585.922 545.165 586.786 546.335 587.669 547.227C588.552 548.12 591.711 549.663 590.874 550.759C590.036 551.855 587.996 550.168 585.756 548.989C584.076 548.106 583.115 547.161 582.167 546.335C581.385 546.929 580.498 547.035 579.725 545.973C577.882 543.439 572.022 540.789 570.534 540.983C569.047 541.177 568.21 540.656 568.009 539.547M368.057 212.343C368.577 212.11 369.109 211.871 369.653 211.625C372.101 210.592 374.369 209.73 376.493 209.016M368.057 212.343C368.205 212.621 368.353 212.923 368.5 213.25C369.633 215.778 361.099 233.69 351.421 254.305M376.493 209.016C377.114 210.263 378.331 211.661 380.25 213.25C391.875 222.875 397.5 236 414.5 248.75C415.763 249.697 417.062 250.598 418.386 251.458M175.5 187C167.375 190.625 188.5 191.5 204.5 194.5C217.3 196.9 227 205.417 230.25 209.375C229.769 209.449 228.607 210.159 227.443 212.343M258.125 122.375V94.25C258.125 91.8748 267.157 90.7065 269.75 93.3533M269.75 93.3533C270.626 94.7082 273.928 100.432 274.25 113C274.48 121.951 271.211 132.65 266.401 142.375M269.75 93.3533C267.5 96 264.552 122.125 266.401 142.375M266.401 142.375C263.352 148.539 259.181 153.96 253.75 157.5M156 197.625C161 192.5 170.375 195.875 172.25 197.625C174.125 199.375 179.75 192.25 196.25 196.625C210.026 200.278 222.147 202.711 219.007 209.016M256.926 282.302C256.825 282.076 256.724 281.85 256.625 281.625C252.692 272.7 248.278 263.248 244.079 254.305M256.926 282.302C266.506 303.643 284.84 326.184 295.037 337.25M256.926 282.302C250.548 285.687 243.672 287.719 236.527 288.699M183.49 281.704C183.41 281.678 183.33 281.651 183.25 281.625M183.49 281.704C183.368 280.505 183.244 279.271 183.118 278M183.49 281.704C186.048 306.959 187.408 316.56 182.125 328.375M183.49 281.704C200.581 287.32 219.331 291.056 236.527 288.699M181 254.125C181.272 257.667 181.548 261.008 181.823 264.166M183.118 278C171.625 295 155.625 310.625 151.875 312.625C151.214 312.978 150.312 312.949 149.296 312.625M183.118 278C182.702 273.814 182.264 269.226 181.823 264.166M155.875 262.477C146.058 267.054 137.427 271.347 133.625 278M155.875 262.477C151.958 271.693 143.375 291.55 140.375 297.25C138.372 301.056 140.72 305.754 143.915 309M155.875 262.477C162.791 259.253 170.295 255.888 177.114 251.458M143.915 309C123.375 337.75 116.25 356 116.625 370.625C116.8 377.435 116.703 382.483 116.146 385M143.915 309C145.646 310.759 147.626 312.092 149.296 312.625M107.625 344C105 356.875 108.125 373.25 112.125 382.5C114.213 387.328 115.449 387.865 116.101 385.196M149.296 312.625C143.915 338.125 130.375 359.75 132 375C133.124 385.544 135.681 389.993 135.624 394.875M160.625 371.625C156.375 377.875 154.625 384.5 152.625 388.625C150.625 392.75 141.75 398.875 139 403.5C136.25 408.125 132 406.5 133.625 402.25C135.052 399.319 135.599 397.054 135.624 394.875M116.146 385C116.132 385.067 116.117 385.132 116.101 385.196M116.146 385C116.131 385.065 116.116 385.131 116.101 385.196M116.101 385.196C112.143 402.294 114.521 408.008 120 410C121.796 410.653 123.251 412.189 124.386 414M124.386 414C126.031 416.625 127.005 419.827 127.375 421.75M124.386 414C121.782 420.843 115.803 436.286 109.095 454.625M109.095 454.625C99.9983 479.494 93.6836 498.568 88.5037 519.86M109.095 454.625C115.23 431.459 104.656 404.509 96.6174 382.5M88.5037 519.86C88.5025 519.865 88.5012 519.87 88.5 519.875M88.5037 519.86C90.4632 519.245 92.0261 518.037 92.875 516M88.5037 519.86C84.1151 521.237 77.7369 519.644 72.9341 517.756M96.6174 382.5C95.417 379.213 94.2732 376.037 93.25 373M96.6174 382.5C94.0247 392.026 92.422 402.058 91.384 412M77.4341 519.26C81.1007 508.094 85 491.975 87.5 475.875C89.7364 461.473 88.7719 437.02 91.384 412M55.8091 501.125C53.4341 509.25 63.6841 513.5 70.3091 516.625C71.1034 517 71.9876 517.383 72.9341 517.756M91.384 412C81.5 447.625 83.0591 483.761 72.9341 517.756M135.624 394.875C135.125 388.875 129.917 386.458 127.375 386M295.037 337.25C295.037 365 287.125 397 281.75 403C276.375 409 282 422.375 274 433.125C266 443.875 265.875 453.75 258 447M258 447C255.029 444.454 252.45 442.548 250 441.255M258 447C264.754 454.598 263.013 464.292 264.23 469.454M250 441.255C245.956 439.122 242.265 438.66 237.75 439.75C230.5 441.5 229.5 439.5 225.375 443.25C222.306 446.04 214.946 453.813 210.092 460.75M250 441.255C227.875 425.125 209.125 397 208.125 388.375M264.23 469.454C264.274 469.642 264.322 469.824 264.375 470M264.23 469.454C264.278 469.634 264.326 469.815 264.375 470M264.23 469.454C262.542 463.158 261.346 460.299 259.125 457.923M264.375 470C265.875 475 272.5 494.25 278 503.625C281.329 509.299 285.116 515.707 289.25 519.881M210.092 460.75C222.56 446.375 229.625 443.75 236.375 443.75C243.125 443.75 246.125 448.125 253.125 453.125C255.578 454.877 257.341 456.138 258.719 457.506M210.092 460.75C208.998 462.315 208.03 463.837 207.268 465.25M202.625 754.5C201.25 737.625 198.5 695.575 198.5 662.375C198.5 646.803 199.926 634.926 202.883 626M202.883 626C207.806 611.138 217.349 606.952 231.25 605C232.662 604.802 234.036 604.62 235.375 604.451M202.883 626C195.5 623.375 196.875 602.875 196.875 588C196.875 580.309 195.831 565.693 194.754 552.875M193.125 534.875C193.371 537.388 193.666 540.512 193.981 544C194.231 546.77 194.494 549.77 194.754 552.875M235.375 604.451C248.44 602.806 258.224 602.398 267.75 599.878C272.64 598.584 277.462 596.734 282.625 593.875C286.768 591.581 289.784 588.47 291.978 584.875M235.375 604.451C230.613 640.349 229.856 694.124 232.398 727.5M244.5 780.226C243.75 778.476 239.875 769.35 235.375 750.25C234.123 744.937 233.125 737.054 232.398 727.5M244.5 780.226C247.202 779.878 250.155 780.004 252.5 780.625C256.75 781.75 254 785.25 254.125 793.125M244.5 780.226C242.305 780.508 240.276 781.103 238.875 782C235.75 784 232.125 785.625 230.75 785.625M269.25 784.125C269.25 772.75 262 766 260.75 753.625C259.979 745.989 259.969 743.207 260.75 737.087M291.978 584.875C291.053 603.185 281.663 637.69 274.097 662.375M268.432 680.125C266.344 697.197 264.191 711.808 263.125 719.875C262.024 728.204 261.235 733.288 260.75 737.087M268.432 680.125C270.032 675.34 271.994 669.237 274.097 662.375M268.432 680.125C270.365 664.321 272.242 646.408 273.149 629.625M274.097 662.375C274.219 648.475 273.516 634.75 273.149 629.625M273.375 598.116C273.932 607.433 273.763 618.27 273.149 629.625M260.75 737.087C268.432 705.375 290.375 656.875 292.625 644.75M232.398 727.5C232.68 752.6 224.75 770.875 220.75 776.875M259.25 857.375C252 828.75 254.25 801 254.125 793.125M254.125 793.125C246.425 806.225 238.417 847.417 235.375 866.375M230.75 785.625C229.375 785.625 224.875 776 215.375 776.125C207.775 776.225 205.875 778.333 205.875 779.375C206.375 782.5 208.825 784.05 208.625 789.75C208.585 790.9 208.417 792.01 208.153 793.125M230.75 785.625L229.125 821.5M208.153 793.125C206.78 798.918 202.786 804.82 200.375 816.875M208.153 793.125C215.375 807 220.75 835.75 220.75 864M262.125 938.125C253.875 967.875 244 971 239.125 970.75C234.25 970.5 226.738 958.875 227.226 943.75C227.317 940.935 227.409 938.4 227.5 936.125M227.5 936.125C227.911 925.873 227.329 917.421 227.5 916.125M227.5 936.125C226.747 954.875 216.375 962.375 212.375 962.5C208.375 962.625 202 960.25 198.5 938.125M253.5 970.75C242.75 1009.88 237.875 1061.75 245.625 1092.25M249.25 1080.5C248.875 1097.25 241.25 1094.38 237.125 1094.25C235.207 1094.19 232.451 1092.7 229.875 1090.68M213.875 1067C216.417 1070.88 221.85 1079.5 223.25 1083C223.394 1083.36 223.581 1083.74 223.804 1084.12M229.875 1090.68C230.284 1082.9 229.853 1070.31 228.478 1055.75M229.875 1090.68C227.368 1088.72 225.031 1086.25 223.804 1084.12M228.478 1055.75C228.349 1054.39 228.212 1053.01 228.067 1051.62M228.478 1055.75C228.381 1054.38 228.243 1053 228.067 1051.62M228.067 1051.62C224.541 1017.79 216.096 975.22 201.5 957.25M228.067 1051.62C225.365 1030.32 213.79 1007.48 208 998.25M223.804 1084.12C224.359 1068.12 214.25 1050.25 213.125 1035.75M210.625 1084.12C216.875 1089.5 227.25 1101.25 233 1115.62C227.5 1109.12 224 1109.88 220.25 1104.88C217.25 1100.88 212.583 1094.38 210.625 1091.62M210.625 1125.12C208.625 1119.12 215 1115.62 212.625 1112.12C211.519 1110.49 210.06 1107.62 209.069 1104.49M208.75 1094.25C208.168 1095.44 207.938 1096.86 207.958 1098.38M207.958 1098.38C201.375 1106.62 190.875 1110.62 187.625 1110.25M207.958 1098.38C207.975 1099.62 208.161 1100.94 208.458 1102.25M208.458 1102.25C200.625 1109.75 195.875 1111.62 193.75 1112.12C192.05 1112.53 188.208 1113.62 186.5 1114.12M208.458 1102.25C208.629 1103 208.836 1103.75 209.069 1104.49M209.069 1104.49C205.214 1110.6 196.333 1116.12 192.375 1118.12M259.125 457.923C258.993 457.783 258.858 457.644 258.719 457.506M259.125 457.923C258.994 457.776 258.859 457.637 258.719 457.506M258.719 457.506C253.104 452.225 240.247 459.301 235.125 471.375C229.875 483.75 223.625 499.75 219.25 507.25M219.25 507.25C214.875 514.75 204.134 542.125 194.754 552.875M219.25 507.25C219.25 492 220.037 472.577 207.268 465.25M207.268 465.25C206.869 465.992 206.525 466.703 206.25 467.375M87.5 530C86.2059 530.522 84.3895 530.661 82.25 530.498M82.25 530.498C80.4759 530.362 78.4797 530.019 76.375 529.513M82.25 530.498C78.9089 544.548 76.4578 563.06 75.3094 573.625M76.375 529.513C75.5963 529.325 74.8027 529.116 74 528.886M76.375 529.513C76.76 540.4 72.9545 549.931 69.5589 563.5M74 528.886C72.6102 528.488 71.1932 528.031 69.7787 527.525M74 528.886C70.0276 542.761 67.1375 553.832 65.1215 562.125M69.7787 527.525C68.0816 526.918 66.3882 526.242 64.75 525.518M69.7787 527.525C67.3444 535.741 65.2547 542.633 63.4761 548.375M64.75 525.518C62.8107 524.66 60.9489 523.734 59.25 522.773M64.75 525.518C59.7315 533.5 54.4876 548.288 51.1204 559.125M59.25 522.773C56.9167 529.349 50.325 547.125 42.625 565.625M59.25 522.773C58.6896 522.456 58.1469 522.136 57.625 521.813M57.625 521.813C55.9282 520.763 54.4513 519.686 53.3 518.625M57.625 521.813C48.6463 535.543 41.1139 550.432 36.5461 560.375M53.3 518.625C52.5657 517.948 51.9639 517.278 51.5218 516.625M53.3 518.625C52.5855 520.086 51.7235 521.818 50.75 523.735M51.5218 516.625C50.8034 515.564 50.507 514.548 50.75 513.625M51.5218 516.625C45.3043 523.025 33.75 529.625 28.75 532.125M50.75 523.735C47.3446 530.442 42.5747 539.428 37.983 547.125M50.75 523.735C48.5018 525.591 44.1733 528.802 39.25 531.714M28.75 536.75C30.1446 536.274 31.5718 535.688 33 535.028M33 535.028C31.2 539.44 28.5833 540.181 27.5 540M33 535.028C35.1151 534.049 37.2325 532.907 39.25 531.714M75.3094 573.625C75.1335 575.243 74.9883 576.674 74.875 577.875M75.3094 573.625C80.8401 571.75 84.25 564.75 86 555M26.25 525.518C23.25 529.502 21.75 534.666 21.375 536.75M30 559.125C32.3456 556.193 35.1299 551.908 37.983 547.125M37.983 547.125C40.9966 540.225 40.0833 533.976 39.25 531.714M36.5461 560.375C35.0091 563.721 33.8078 566.507 33 568.5M36.5461 560.375C37.4474 560.917 39.125 564.125 38.625 572.625M63.4761 548.375C58.2237 565.331 55.6848 572.255 55 573.625M63.4761 548.375C57.625 553.125 59.6157 544.625 51.1204 559.125M48.625 567.625C49.243 565.361 50.0946 562.426 51.1204 559.125M66.75 576.875C67.5682 571.961 68.5452 567.551 69.5589 563.5M69.5589 563.5C68.4118 561.5 66.1226 561.75 65.1215 562.125M65.1215 562.125C62.9251 571.16 61.766 576.898 61.375 579.375M235.722 283.182C239.487 284.086 240.724 280.793 241.722 277.5C242.542 274.796 243.092 265.267 244.079 254.305M235.722 283.182C234.771 282.953 233.658 282.457 232.347 281.625C226.802 278.106 206.243 268.217 192.097 260.577M235.722 283.182C236.587 284.686 236.935 286.717 236.527 288.699M192.097 260.577C189.662 259.262 187.418 258.013 185.472 256.875C182.728 255.27 179.886 253.44 177.114 251.458M192.097 260.577C186.833 260.272 183.389 261.406 181.823 264.166M28.1121 544.875C26.3621 544.875 22.6121 546.5 20.9871 547.625C19.3621 548.75 18.7371 550.625 15.7371 552.875C12.7371 555.125 7.36206 556.375 3.48706 554.875C2.15124 554.358 1.33532 553.484 0.901058 552.5C0.0755993 550.629 0.629146 548.358 1.61206 547.375C3.11206 545.875 5.23706 544.5 6.36206 543.375C6.58356 543.153 6.74689 542.947 6.875 542.746C7.39752 541.926 7.33356 541.205 8.23706 540C9.36206 538.5 11.6121 536.375 13.3621 535C15.1121 533.625 18.8621 531.875 20.7371 530.75C22.6121 529.625 23.9871 527.625 25.7371 526.375C27.4871 525.125 31.8621 522.5 36.3621 520.625C37.6537 520.083 40.4871 518.925 41.4871 518.625C42.7371 518.25 49.2371 516.125 50.3621 514.625C51.4871 513.125 61.4871 486.375 65.6121 473C69.7371 459.625 72.6121 435 79.7371 409.375C86.8621 383.75 93.3621 372.875 98.8621 362.625C104.362 352.375 106.612 350.375 108.737 340C110.439 331.691 115.187 318.974 118.295 310C119.068 307.768 119.739 305.768 120.237 304.125C122.237 297.525 130.07 283.875 133.737 277.875C133.945 274.792 134.362 266.425 134.362 257.625C134.362 246.625 135.362 225.375 146.112 209.625C156.129 194.95 162.564 192.212 175.125 187.154C176.045 186.784 176.998 186.401 177.987 186C192.487 180.125 197.612 182.5 211.737 177.625C225.862 172.75 237.737 167.375 244.612 163.375C251.487 159.375 257.862 155.25 258.112 152.25C258.178 151.453 258.21 148.842 258.219 145.375C258.238 138.403 258.168 127.97 258.112 121.875C255.625 118.75 255.112 110.375 254.612 107.25C254.112 104.125 254.237 101.5 253.862 102.375C253.487 103.25 252.987 104.75 249.987 105.125C246.987 105.5 244.737 98.125 242.612 94.5C240.487 90.875 238.987 82.625 238.737 76.75C238.679 75.3916 238.775 74.2337 238.991 73.25C239.708 69.9792 241.748 68.6344 243.862 68.25C246.062 67.85 247.779 70.5 248.362 71.875C247.57 63.3333 246.612 44.3 249.112 36.5C252.237 26.75 266.487 0.5 297.737 0.5M28.1121 544.875C26.9037 547.542 24.1371 553.85 22.7371 557.75C20.9871 562.625 18.1121 574.5 16.9871 579C15.8621 583.5 13.8621 591.875 12.8621 597.125C11.8621 602.375 10.6121 609.375 10.4871 611.875C10.4049 613.518 9.67483 617.807 10.8874 620.625C11.5198 622.095 12.6805 623.164 14.7371 623.25C16.9361 623.342 18.5642 622.292 19.7568 620.875C21.8183 618.427 22.5787 614.883 22.7371 614.25C22.9008 613.595 23.4936 610.044 24.0237 607.25C24.3028 605.779 24.5646 604.517 24.7371 604C25.1012 602.907 26.7917 597.04 28.5526 591.422C29.2093 589.326 29.8759 587.266 30.4871 585.5C32.7371 579 33.6121 576.625 34.1121 575.75C34.6121 574.875 35.4871 576 35.2371 576.375C34.9871 576.75 33.6121 579.375 32.9871 582C32.3621 584.625 28.6121 597.875 27.7371 602.25C26.8621 606.625 26.9871 608.625 26.2371 612.75C25.4871 616.875 23.6121 623.375 23.6121 628.5C23.6121 629.889 23.6947 631.15 23.885 632.25C24.3966 635.207 25.6859 637 28.2371 637C31.1951 637 32.8138 635.304 33.5461 634.25C33.6802 634.057 33.7846 633.885 33.8621 633.75C34.3621 632.875 35.8621 629.375 36.4871 626.625C37.1121 623.875 38.2371 617.125 38.7371 615.125C39.2371 613.125 43.3621 594.875 44.7371 590.875C46.1121 586.875 47.2371 583 47.8621 582.375C48.4871 581.75 49.7371 582.375 49.3621 583.125C48.9871 583.875 45.1121 596.875 43.8621 603.125C42.6121 609.375 42.4871 613 41.3621 617.375C40.6954 619.967 39.0193 625.632 39.2726 630C39.4467 633.003 40.5331 635.393 43.4871 635.75C45.6308 636.009 47.3593 634.781 48.75 632.843C52.0625 628.226 53.4588 619.576 53.9871 617.375C54.7371 614.25 57.3621 606 57.8621 603.625C58.3621 601.25 60.1121 593.75 61.1121 590.875C62.1121 588 63.4871 582.75 64.8621 583.125C66.2371 583.5 63.3621 590.875 62.8621 592.625C62.3621 594.375 61.6121 599.375 61.1121 601.25C60.8398 602.271 60.0484 604.998 59.3235 607.875C58.7174 610.281 58.1578 612.792 57.9871 614.5C57.887 615.501 57.8225 616.475 57.8625 617.375C57.9726 619.847 58.8714 621.758 61.9871 622.125C66.2371 622.625 68.8621 612 69.4871 610.375C70.1121 608.75 74.4871 595.25 74.8621 593.5C75.2371 591.75 78.1121 584 79.4871 581.25C80.1715 579.881 81.1658 576.808 82.1306 573.25C83.1039 569.661 84.0471 565.577 84.6121 562.25C85.7371 555.625 88.1121 548.125 87.2371 542C86.3621 535.875 85.8621 533.25 87.7371 528.75C89.6121 524.25 91.7371 518.25 93.4871 514.625C95.2371 511 101.487 497.25 120.487 472.25C138.307 448.803 149.969 422.607 154.03 405.625C154.299 404.5 154.535 403.416 154.737 402.375C157.337 388.975 159.487 376.792 160.237 372.375C171.548 353.186 180.195 337.074 185.257 319.125C188.382 328.75 196.237 347.125 198.237 355.125C200.237 363.125 200.737 363.625 202.737 367.875L202.911 368.245C204.852 372.365 206.752 376.399 207.237 381.375C207.341 382.443 207.522 383.794 207.742 385.375C208.135 388.198 208.654 391.755 209.095 395.75C209.591 400.252 209.987 405.31 209.987 410.5C209.987 422.875 205.362 433.5 205.612 445.125C205.693 448.869 205.799 451.926 205.906 454.5C206.132 459.919 206.362 463.199 206.362 466.25C206.362 470.75 201.362 479.25 199.112 496.5C197.393 509.676 195.748 515.924 194.732 522.875C194.418 525.024 194.164 527.241 193.987 529.75C193.64 531.895 193.251 534.378 192.833 537.125C189.798 557.11 185.301 591.047 185.125 610.125C184.875 637.25 187.125 669.75 187.375 680.125C187.625 690.5 189 704.875 192.5 717.875C192.833 719.11 193.191 720.362 193.568 721.625C197.156 733.654 202.399 746.664 202.625 755.375C202.875 765 199.5 767.125 199.25 782C199 796.875 199.875 812.125 200.125 816.125C200.375 820.125 190.375 866.375 192 887.625C193.155 902.727 196.835 927.237 199.9 946.75C201.148 954.693 202.293 961.809 203.125 967.125C206 985.5 214.508 1038.2 214.549 1054.38C214.549 1059.12 213.25 1073.5 212.625 1074.88C212 1076.25 210.5 1079.65 210.5 1082.62C210.5 1085.5 211.875 1088.38 210.5 1091.62C209.125 1094.88 203.526 1098.98 202.5 1099.75C199.557 1101.95 198.026 1103.52 192.625 1106C186.375 1108.88 182 1115.25 192.625 1118.25C203.25 1121.25 210.49 1124.88 210.49 1124.88C211.25 1127.5 213.425 1130.38 217.875 1130.88C230.157 1132.25 246.919 1132.51 251.625 1123.92C252 1122.67 255.75 1113.38 252.5 1107.62C251.325 1105.55 250.444 1104.14 249.875 1102.99M28.1121 544.875L30.25 541M249.875 1102.99C249.591 1102.42 249.384 1101.91 249.258 1101.42M249.875 1102.99C249.648 1102.48 249.443 1101.95 249.258 1101.42M67.9017 573.73C66.9592 577.033 65.4477 582.047 67.9017 583.48C66.0194 583.757 66.9921 586.073 66.7015 588.39C66.4448 590.437 63.5665 596.138 64.3614 598.514M64.3614 598.514C64.4665 598.828 64.6359 599.084 64.8839 599.265M64.3614 598.514C63.1103 599.456 64.0948 601.63 63.8251 604.089C63.5555 606.548 60.717 609.581 62.2889 613.393C63.8609 617.205 65.4929 610.268 65.7547 609.471C66.0165 608.675 66.496 605.066 67.4816 604.037C68.4671 603.007 68.5431 600.09 67.9017 600.025C68.7331 599.762 69.3356 599.012 69.4702 597.806C69.7426 595.365 71.183 590.51 71.8484 589.022C72.5138 587.534 74.0716 584.748 72.839 583.355C76.4812 582.034 73.8711 574.929 73.7724 570.387M55.2498 573.112C54.2687 575.731 49.0812 579.748 53.2139 582.104C51.3276 582.657 50.9609 585.143 51.4003 588.42C51.8397 591.696 49.7671 597.092 49.2935 598.142C48.8724 599.077 46.4135 601.844 49.1869 603.124C47.8707 603.509 47.5377 605.04 47.1614 607.755C46.785 610.471 45.1184 614.183 45.1185 616.819C45.1186 618.105 43.5302 623.943 45.1186 624.355C46.3098 624.664 47.7009 618.782 48.5889 617.105C49.714 614.98 54.839 603.855 52.701 603.546C55.1426 602.866 55.0696 599.402 55.2498 595.354C55.4731 590.339 61.3019 585.728 59.3389 582.586C62.3869 582.488 61.4715 579.64 61.3055 579.074M42.7138 565.382C39.3587 571.428 34.492 577.633 38.6553 579.417C38.7859 579.473 38.9155 579.528 39.0441 579.582C36.2395 578.519 36.0977 583.178 36.1358 584.184C36.1748 585.214 34.049 594.284 33.2478 595.558C32.4574 596.815 30.484 598.796 32.9402 599.744M49.3388 565.382C48.8474 566.826 46.2553 574.214 46.1016 578.164C46.0155 580.374 44.9983 581.061 43.3897 580.926C45.2498 582.847 43.4046 585.456 42.9132 586.901C42.4218 588.345 38.0953 592.977 38.4258 597.698C38.6091 600.316 37.7374 600.958 36.4786 600.852C37.5014 603.923 34.2436 610.112 33.4809 612.855C32.7713 615.407 31.9368 619.756 31.2361 620.48C30.5354 621.204 30.4511 626.98 28.8118 626.98C27.1725 626.98 28.9556 621.143 28.8119 619.753C28.6682 618.363 28.8119 614.105 29.5119 612.264C30.0809 610.768 31.1439 604.891 31.2361 602.521C31.3155 600.482 31.9026 599.527 32.9402 599.744M32.9402 599.744C32.9739 599.757 33.0084 599.77 33.0438 599.783M29.9675 558.981C25.0494 564.962 22.7212 568.903 25.4194 570.356C23.8689 570.37 23.3903 568.541 22.339 574.606C21.2878 580.671 21.589 580.231 20.1724 583.331C18.8714 586.178 16.7832 587.863 18.662 589.293C17.2152 588.873 17.4665 592.184 17.214 593.73C16.9616 595.276 14.6205 603.121 14.964 604.855C15.3075 606.589 12.714 614.231 14.964 614.23C17.214 614.23 17.9443 606.855 18.964 605.73C19.9838 604.605 21.1948 595.596 21.464 593.73C21.7333 591.864 22.4139 590.853 21.977 590.363C23.5379 590.266 24.2074 588.962 24.464 587.257C24.8221 584.879 27.3859 580.067 28.464 578.231C29.5422 576.396 31.4288 572.661 29.9675 571.894C32.1366 572.412 32.4735 571.732 33.0111 568.487M28.8883 532.166C27.5245 532.341 25.9998 533.05 25.8221 534.414C25.7749 534.775 25.8557 535.11 26.0016 535.445C25.7252 535.157 23.7525 532.883 21.9852 535.804C20.2178 538.725 19.3044 538.239 17.9195 539.193C16.5346 540.147 11.0863 541.328 11.2643 542.863C11.2857 543.049 11.3408 543.271 11.4242 543.515C9.57773 545.165 8.71402 546.335 7.83087 547.227C6.94772 548.12 3.78878 549.663 4.6264 550.759C5.46402 551.855 7.5042 550.168 9.7442 548.989C11.4242 548.106 12.3849 547.161 13.3329 546.335C14.1153 546.929 15.0023 547.035 15.7753 545.973C17.6182 543.439 23.4784 540.789 24.9659 540.983C26.4533 541.177 27.2902 540.656 27.4914 539.547M227.443 212.343C226.923 212.11 226.391 211.871 225.847 211.625C223.399 210.592 221.131 209.73 219.007 209.016M227.443 212.343C227.295 212.621 227.147 212.923 227 213.25C225.867 215.778 234.401 233.69 244.079 254.305M219.007 209.016C218.386 210.263 217.169 211.661 215.25 213.25C203.625 222.875 198 236 181 248.75C179.737 249.697 178.438 250.598 177.114 251.458M303.625 57.2498C301.375 73.2498 297.25 85.7498 313.125 87.9998C329 90.2498 331.625 90.3748 335 79.9998C338.375 69.6248 340.875 61.4998 333.875 57.2498C326.875 52.9998 305.465 44.8748 303.625 57.2498ZM291.875 57.2498C294.125 73.2498 298.25 85.7498 282.375 87.9998C266.5 90.2498 263.875 90.3748 260.5 79.9998C257.125 69.6248 254.625 61.4998 261.625 57.2498C268.625 52.9998 290.035 44.8748 291.875 57.2498Z" stroke="black" stroke-linecap="round" stroke-linejoin="round"/>
</svg>
