<svg width="587" height="1137" viewBox="0 0 587 1137" fill="none" xmlns="http://www.w3.org/2000/svg">
<path d="M387.625 835.625C383.625 828.625 379.875 819.25 380.5 808.5L378.625 813.875L377 820.125L375.125 826.75L373.5 834.625L371.625 844L370.25 851.5L369.375 857.625L368.125 865.75L366.625 874.375L365.25 884.625L364.25 892.75L363.125 903L361 926.625L358.75 955L356.75 976.25L354.875 991.375L352.375 1008.5L348.75 1028.12L345.125 1047.5L351.375 1049.88L353 1041.25L354.875 1030.62L355.875 1027.38L360.625 1009.38L367.125 981.375L373.25 954L381.75 915C383.292 907.208 386.325 887.45 386.125 870.75C385.925 854.05 387.042 840.375 387.625 835.625Z" fill="#CE4849"/>
<path d="M199 835.625C203 828.625 206.75 819.25 206.125 808.5L208 813.875L209.625 820.125L211.5 826.75L213.125 834.625L215 844L216.375 851.5L217.25 857.625L218.5 865.75L220 874.375L221.375 884.625L222.375 892.75L223.5 903L225.625 926.625L227.875 955L229.875 976.25L231.75 991.375L234.25 1008.5L237.875 1028.12L241.5 1047.5L235.25 1049.88L233.625 1041.25L231.75 1030.62L230.75 1027.38L226 1009.38L219.5 981.375L213.375 954L204.875 915C203.333 907.208 200.3 887.45 200.5 870.75C200.7 854.05 199.583 840.375 199 835.625Z" fill="#CE4849"/>
<path d="M386.125 870.75C385.925 854.05 387.042 840.375 387.625 835.625L391 840.375L391.75 852.125C392.208 858.333 393.425 872.55 394.625 879.75C395.825 886.95 394.125 900.417 393.125 906.25L387.5 936.625L380.625 977.125C379.417 983.958 376.725 1000.68 375.625 1012.88C374.525 1025.07 375.167 1032.96 375.625 1035.38L377.75 1046.62L376.625 1056L367.125 1057.75L360.125 1054L360.625 1048L362.125 1032.88L363.875 1014.62L368.5 977.125L373.25 954L381.75 915C383.292 907.208 386.325 887.45 386.125 870.75Z" fill="#CE4849"/>
<path d="M200.5 870.75C200.7 854.05 199.583 840.375 199 835.625L195.625 840.375L194.875 852.125C194.417 858.333 193.2 872.55 192 879.75C190.8 886.95 192.5 900.417 193.5 906.25L199.125 936.625L206 977.125C207.208 983.958 209.9 1000.68 211 1012.88C212.1 1025.07 211.458 1032.96 211 1035.38L208.875 1046.62L210 1056L219.5 1057.75L226.5 1054L226 1048L224.5 1032.88L222.75 1014.62L218.125 977.125L213.375 954L204.875 915C203.333 907.208 200.3 887.45 200.5 870.75Z" fill="#CE4849"/>
<path d="M339 863.125C337.125 860.5 333.25 853.95 332.75 848.75L332.375 852.5L330.25 864.625L328.625 872.75L327.375 880L326.375 886.875L325.625 896.375L325.25 906.625L325.875 919.125C326.167 921.458 326.925 927.275 327.625 931.875C328.5 937.625 331.25 946.75 332.125 949.25C332.825 951.25 336 963.833 337.5 969.875L341.5 994.75L343.5 1014.88L345.875 989.625L347.875 957.875C348.333 948.792 349.35 927.025 349.75 912.625C350.25 894.625 347.125 881.625 346.125 876.5C345.325 872.4 341.042 865.875 339 863.125Z" fill="#CE4849"/>
<path d="M247.554 863.125C249.429 860.5 253.304 853.95 253.804 848.75L254.179 852.5L256.304 864.625L257.929 872.75L259.179 880L260.179 886.875L260.929 896.375L261.304 906.625L260.679 919.125C260.387 921.458 259.629 927.275 258.929 931.875C258.054 937.625 255.304 946.75 254.429 949.25C253.729 951.25 250.554 963.833 249.054 969.875L245.054 994.75L243.054 1014.88L240.679 989.625L238.679 957.875C238.22 948.792 237.204 927.025 236.804 912.625C236.304 894.625 239.429 881.625 240.429 876.5C241.229 872.4 245.512 865.875 247.554 863.125Z" fill="#CE4849"/>
<path d="M343.625 590.5C349.125 574.5 353.5 553.5 354.5 536.75C355.103 526.657 356.925 511.015 358.375 499.671L359.125 506.875L361 516.625L363.75 526L367.5 535.375C370.5 543.666 377.65 565.675 382.25 587.375C388 614.5 388.125 633.75 386.375 659.5C384.975 680.1 380.375 703.416 378.25 712.5C377.125 717.125 373.65 729.725 368.75 743.125C364.502 754.741 366.085 766.571 367.912 772.88C368.212 773.635 368.494 774.462 368.75 775.375C368.478 774.687 368.192 773.848 367.912 772.88C366.153 768.465 363.763 766.528 362.375 764.5C360.75 762.125 353.75 763.375 349.625 764.5C346.325 765.4 344.167 772.125 343.5 775.375L342.625 762.25L340.375 746.75L336.25 718.125L333.375 689.375L331.875 660.375V643.125C332.125 637.25 332.75 624.6 333.25 621C333.875 616.5 338.125 606.5 343.625 590.5Z" fill="#CE4849"/>
<path d="M242.737 590.5C237.237 574.5 232.862 553.5 231.862 536.75C231.26 526.657 229.438 511.015 227.987 499.671L227.237 506.875L225.362 516.625L222.612 526L218.862 535.375C215.862 543.666 208.712 565.675 204.112 587.375C198.362 614.5 198.237 633.75 199.987 659.5C201.387 680.1 205.987 703.416 208.112 712.5C209.237 717.125 212.712 729.725 217.612 743.125C221.86 754.741 220.277 766.571 218.451 772.88C218.15 773.635 217.868 774.462 217.612 775.375C217.884 774.687 218.17 773.848 218.451 772.88C220.209 768.465 222.6 766.528 223.987 764.5C225.612 762.125 232.612 763.375 236.737 764.5C240.037 765.4 242.196 772.125 242.862 775.375L243.737 762.25L245.987 746.75L250.112 718.125L252.987 689.375L254.487 660.375V643.125C254.237 637.25 253.612 624.6 253.112 621C252.487 616.5 248.237 606.5 242.737 590.5Z" fill="#CE4849"/>
<path d="M293.61 576.685L293.425 576.676L292.741 576.685C285.487 577.055 281.78 577.243 279.425 570.426C277.05 563.551 267.175 540.051 263.8 531.676C260.425 523.301 258.55 505.676 257.925 497.051C257.3 488.426 254.425 478.801 251.425 474.426C248.425 470.051 244.925 458.301 244.8 452.801C244.8 447.551 243.55 441.426 244.175 440.551L244.18 440.544L244.18 440.544C244.244 440.454 244.334 440.329 244.479 440.176C245.785 438.805 251.589 435.236 283.601 435.799C284.222 430.6 290.33 428.801 293.175 428.801C296.021 428.801 302.128 430.6 302.749 435.799C334.762 435.236 340.565 438.805 341.871 440.176C342.017 440.329 342.106 440.454 342.17 440.544L342.171 440.544L342.175 440.551C342.8 441.426 341.55 447.551 341.55 452.801C341.425 458.301 337.925 470.051 334.925 474.426C331.925 478.801 329.05 488.426 328.425 497.051C327.8 505.676 325.925 523.301 322.55 531.676C319.175 540.051 309.3 563.551 306.925 570.426C304.57 577.243 300.863 577.055 293.61 576.685Z" fill="#CE4849"/>
<path d="M458.625 303.71L457.385 277.913C457.175 274.792 456.763 266.466 456.763 257.71C456.763 246.71 455.763 225.46 445.013 209.71C434.996 195.035 428.561 192.297 416 187.24C415.08 186.869 414.489 186.611 413.5 186.21C403.37 184.845 395.345 186.743 389 188.935C384.305 190.557 380.53 192.341 377.5 193.085C370.375 194.835 359.875 196.46 342.5 198.46C345.75 198.249 350.375 201.836 354.5 203.586C358.625 205.336 361.75 203.586 375.5 208.211C389.25 212.836 396.625 224.586 401.875 229.211C407.125 233.836 412.75 236.836 418.25 255.086C432.122 266.527 440.054 275.629 446.743 285.085C451.747 292.16 454.025 295.847 458.625 303.71Z" fill="#CE4849"/>
<path d="M128 303.71L129.24 277.913C129.45 274.792 129.862 266.466 129.862 257.71C129.862 246.71 130.862 225.46 141.612 209.71C151.629 195.035 158.064 192.297 170.625 187.24C171.545 186.869 172.136 186.611 173.125 186.21C183.255 184.845 191.28 186.743 197.625 188.935C202.32 190.557 206.095 192.341 209.125 193.085C216.25 194.835 226.75 196.46 244.125 198.46C240.875 198.249 236.25 201.836 232.125 203.586C228 205.336 224.875 203.586 211.125 208.211C197.375 212.836 190 224.586 184.75 229.211C179.5 233.836 173.875 236.836 168.375 255.086C154.503 266.527 146.571 275.629 139.882 285.085C134.878 292.16 132.6 295.847 128 303.71Z" fill="#CE4849"/>
<path d="M314.842 203.634C320.092 200.134 329.592 199.384 343.342 198.509C346.592 198.298 350.342 201.884 354.467 203.634C358.592 205.384 361.717 203.634 375.467 208.259C389.217 212.884 396.592 224.634 401.842 229.259C407.092 233.884 412.717 236.884 418.217 255.134C412.317 252.334 404.842 246.467 401.842 243.884V246.509L403.125 261.75C400.25 268.5 394.15 285.825 392.75 301.125C388.35 305.325 377.062 309.881 371.967 311.634C362.689 314.207 351.318 315.195 337.717 313.384C291.717 307.259 297.842 269.134 298.217 245.759C298.592 222.384 309.592 207.134 314.842 203.634Z" fill="#CE4849"/>
<path d="M271.625 203.634C266.375 200.134 256.875 199.384 243.125 198.509C239.875 198.298 236.125 201.884 232 203.634C227.875 205.384 224.75 203.634 211 208.259C197.25 212.884 189.875 224.634 184.625 229.259C179.375 233.884 173.75 236.884 168.25 255.134C174.15 252.334 181.625 246.467 184.625 243.884V246.509L183.342 261.75C186.217 268.5 192.317 285.825 193.717 301.125C198.117 305.325 209.405 309.881 214.5 311.634C223.777 314.207 235.149 315.195 248.75 313.384C294.75 307.259 288.625 269.134 288.25 245.759C287.875 222.384 276.875 207.134 271.625 203.634Z" fill="#CE4849"/>
<path d="M326.75 185L327.375 176.375C327.875 167.675 331.167 154.583 332.75 149.125C332.75 150.083 332.95 152.475 333.75 154.375C336.25 157.25 341.25 161 357.625 169C370.725 175.4 384.167 179.167 389.25 180.25C387.917 180.542 384.175 181.8 379.875 184.5C374.5 187.875 366.625 191.5 352.875 193.25C341.875 194.65 330.875 188.333 326.75 185Z" fill="#CE4849"/>
<path d="M259.75 185L259.125 176.375C258.625 167.675 255.333 154.583 253.75 149.125C253.75 150.083 253.55 152.475 252.75 154.375C250.25 157.25 245.25 161 228.875 169C215.775 175.4 202.333 179.167 197.25 180.25C198.583 180.542 202.325 181.8 206.625 184.5C212 187.875 219.875 191.5 233.625 193.25C244.625 194.65 255.625 188.333 259.75 185Z" fill="#CE4849"/>
<path d="M341.25 1102.99C340.681 1104.14 339.8 1105.55 338.625 1107.63C335.375 1113.38 338 1118.13 338.375 1119.38C338.75 1120.63 341.25 1135.12 354.125 1135.75C359.25 1136 361.625 1134.63 363.25 1133C364.875 1131.38 364.125 1128 364.375 1127.75C364.625 1127.5 365.75 1127.5 366.25 1127.75C366.75 1128 365.75 1134.13 372.375 1134.13C377.675 1134.13 378.599 1129.71 378.398 1127.5C378.802 1129.25 379.949 1131 382.625 1131C385.315 1131 386.427 1129.33 386.75 1127.5C387.25 1129.13 389.5 1129.63 392.125 1129.25C393.487 1129.06 394.07 1127.4 394.25 1125.63C394.375 1126.13 395.5 1126.5 397.5 1126.5C399.5 1126.5 400.625 1123.88 400.625 1122.63C400.625 1121.38 401.375 1122.25 402.125 1119.88C402.875 1117.5 403.125 1110.63 399 1103.75C395.941 1098.65 391.233 1095.41 388.289 1093.21M245.565 1102.99C246.134 1104.14 247.015 1105.55 248.19 1107.63C251.44 1113.38 248.815 1118.13 248.44 1119.38C248.065 1120.63 245.565 1135.12 232.69 1135.75C227.565 1136 225.19 1134.63 223.565 1133C221.94 1131.38 222.69 1128 222.44 1127.75C222.19 1127.5 221.065 1127.5 220.565 1127.75C220.065 1128 221.065 1134.13 214.44 1134.13C209.14 1134.13 208.216 1129.71 208.416 1127.5C208.013 1129.25 206.866 1131 204.19 1131C201.5 1131 200.388 1129.33 200.065 1127.5C199.565 1129.13 197.315 1129.63 194.69 1129.25C193.328 1129.06 192.744 1127.4 192.565 1125.63C192.44 1126.13 191.315 1126.5 189.315 1126.5C187.315 1126.5 186.19 1123.88 186.19 1122.63C186.19 1121.38 185.44 1122.25 184.69 1119.88C183.94 1117.5 183.69 1110.63 187.815 1103.75C190.874 1098.65 195.582 1095.41 198.525 1093.21M356.779 1120.81C356.964 1120.86 357.132 1120.93 357.279 1121C358.879 1121.8 357.875 1125.38 357.875 1127.12C357.875 1129.38 357.875 1132.88 356 1132.88C353.735 1132.88 353.288 1130.46 352.994 1129.5C352.494 1127.88 350.625 1123.12 350.625 1121.99C350.625 1121.82 350.762 1121.65 351 1121.5M356.779 1120.81C357.904 1120 357.279 1114.25 357.279 1110.62C357.279 1107 359 1104.75 358.375 1100.12M356.779 1120.81C354.83 1120.24 352.211 1120.72 351 1121.5M351 1121.5C348.625 1121.38 347.807 1112.75 347.529 1109.62C347.25 1106.5 345.582 1104.89 347.529 1099.38M358.375 1100.12C358.158 1099.42 357.832 1098.9 357.369 1098.62C355.931 1097.76 351.005 1096.43 348.869 1097.5C348.294 1097.79 347.856 1098.45 347.529 1099.38M358.375 1100.12C359.494 1099.62 360.869 1097.12 359.619 1095.12C358.369 1093.12 354.978 1092.87 352.994 1092.62C350.994 1092.38 344 1092.25 347.529 1099.38M370.228 1122C370.057 1122.09 369.775 1122.12 369.775 1122.28C369.775 1123.87 371.346 1126.92 371.786 1129.12C372.227 1131.33 372.089 1133.12 374.125 1133.12C375.731 1133.12 375.267 1130.56 375.267 1129.62C375.267 1128.62 375.951 1123.86 375.731 1122.75C375.698 1122.58 375.531 1122.45 375.267 1122.34M370.228 1122C368.966 1121.43 366.702 1116.11 366.289 1112.36C365.877 1108.61 363.714 1108.68 364.25 1103.5M370.228 1122C372.027 1121.06 373.926 1121.81 375.267 1122.34L375.267 1122.34M375.267 1122.34C377.574 1121.77 374.324 1115.77 374.324 1111.75M374.324 1111.75C374.324 1107.73 373.728 1107.25 372.125 1101.71M374.324 1111.75C375.566 1111.44 376.503 1111.39 377.015 1111.12M364.25 1103.5C364.326 1102.77 364.544 1102.2 364.944 1101.83C366.185 1100.7 368.141 1099.51 370.444 1100.14C371.064 1100.3 371.624 1100.87 372.125 1101.71M364.25 1103.5C363.056 1103.23 361.907 1100.64 362.741 1098.44C363.576 1096.23 365.815 1095.91 367.713 1095.28C369.625 1094.64 374.192 1094.03 372.125 1101.71M380.771 1121.13C380.646 1121.22 380.431 1121.25 380.444 1121.41C380.576 1122.98 381.834 1123.65 382.358 1125.83C382.882 1128.02 383.224 1130.13 384.501 1129.82C385.778 1129.52 385.172 1127.31 385.094 1126.38C385.011 1125.39 385.356 1123.06 385.094 1121.97C385.054 1121.8 384.914 1121.66 384.701 1121.55M380.771 1121.13C379.747 1120.55 377.825 1115.65 377.194 1111.93C377.146 1111.65 377.085 1111.38 377.015 1111.12M380.771 1121.13C382.086 1120.24 383.619 1121.01 384.7 1121.55L384.701 1121.55M384.701 1121.55C386.438 1121.02 383.956 1112.69 383.831 1111.2C383.706 1109.72 384.286 1105.7 381.556 1100.69M381.556 1100.69C381.097 1099.85 380.618 1099.28 380.124 1099.1C378.288 1098.45 375.191 1099.61 374.324 1100.7C374.044 1101.05 373.923 1101.62 373.925 1102.34C373.939 1107.06 376.175 1108.08 377.015 1111.12M381.556 1100.69C382.517 1093.13 378.031 1094.08 376.603 1094.68C375.402 1094.91 373 1095.47 373 1095.88M388.849 1119.95C388.744 1120.03 388.558 1120.06 388.576 1120.21C388.75 1121.68 389.866 1122.31 390.404 1124.36C390.941 1126.41 390.625 1128.57 392.414 1128.1C393.857 1127.73 392.9 1125.74 392.798 1124.88C392.688 1123.95 392.899 1121.76 392.63 1120.73C392.589 1120.57 392.463 1120.45 392.274 1120.35M388.849 1119.95C387.939 1119.4 387.111 1114.83 386.423 1111.34C385.735 1107.86 383.431 1107.13 383.224 1102.34C383.195 1101.66 383.278 1101.13 383.507 1100.8C384.218 1099.78 385.835 1098.66 387.452 1099.28C387.888 1099.45 388.325 1099.98 388.755 1100.77M388.849 1119.95C389.956 1119.11 391.314 1119.83 392.273 1120.34L392.274 1120.35M392.274 1120.35C393.76 1119.84 391.291 1112.03 391.127 1110.64C390.962 1109.24 391.313 1105.47 388.755 1100.77M388.755 1100.77C388.849 1096.12 386 1094.76 384.231 1095.13C383.198 1095.35 381.599 1095.75 381.25 1096.12M395.419 1119.07C395.338 1119.15 395.187 1119.18 395.214 1119.31C395.47 1120.56 396.01 1121 396.353 1122.75C396.695 1124.5 396.623 1125.79 397.853 1125.83C399.707 1125.9 399.039 1123.88 399.039 1123.06C399.039 1122.26 398.884 1120.39 398.585 1119.53C398.54 1119.4 398.426 1119.3 398.263 1119.22M395.419 1119.07C394.628 1118.66 394.053 1114.69 393.221 1111.75C392.544 1110.25 391.209 1107.29 390.625 1106M395.419 1119.07C396.263 1118.29 397.435 1118.84 398.262 1119.22L398.263 1119.22M398.263 1119.22C399.446 1118.71 397.274 1112.07 397.033 1110.89C396.791 1109.71 395.683 1106.78 393.221 1102.91M393.221 1102.91C392.808 1102.26 392.408 1101.83 392.038 1101.71C391.208 1101.71 389.834 1101.99 389.25 1102.13M393.221 1102.91C392.945 1098.94 389.925 1098.08 388.5 1098.5M382.5 1095C380.625 1090.12 384.25 1090.75 378.875 1088.62C376.514 1087.69 373.935 1087.43 372.125 1088.04M369.761 1091.12C369.752 1092.16 370.125 1093.44 371 1095M369.761 1091.12C367.56 1088.49 361.362 1088.63 358.813 1090.38M369.761 1091.12C369.774 1089.51 370.717 1088.51 372.125 1088.04M364.25 1096.75C363.125 1097 360.325 1096.68 358.125 1093.38C357.305 1092.15 357.73 1091.12 358.813 1090.38M358.813 1090.38C355.91 1088.64 354.597 1087.62 353.579 1087.12M346.625 1095C346.292 1092.67 346.425 1087.83 349.625 1087.12C351.71 1086.67 352.47 1086.59 353.579 1087.12M372.125 1088.04C368.625 1086.5 358.657 1083.88 353.579 1087.12M363 1101.37C361 1102.27 359.25 1101.75 358.625 1101.37M344.875 1103.5C343.575 1107.1 345.959 1111.54 347.375 1111.75M357.375 1113.87C361.975 1114.47 364.8 1113.48 366.384 1113.23M513.5 569.5C513.401 574.042 510.519 580.785 514.161 582.105M519.371 572.843C520.313 576.146 521.552 580.798 519.098 582.23M519.098 582.23C518.514 582.571 517.471 582.268 516.32 582.24C515.911 582.23 514.659 582.286 514.161 582.105M519.098 582.23C520.981 582.508 520.008 584.824 520.298 587.141C520.589 589.458 524.24 596.46 522.116 598.016C521.041 598.803 519.95 599.045 519.098 598.776M514.161 582.105C512.928 583.499 514.486 586.285 515.152 587.773C515.817 589.26 517.257 594.116 517.53 596.556C517.664 597.762 518.267 598.512 519.098 598.776M519.098 598.776C518.457 598.841 518.533 601.758 519.518 602.787C520.504 603.817 520.983 607.425 521.245 608.222C521.507 609.018 523.139 615.955 524.711 612.143C526.283 608.332 523.444 605.299 523.175 602.839C522.905 600.38 524.099 598.281 522.847 597.339M534.625 576.914C535.606 579.534 534.875 579.625 533.786 580.855M525.375 570C526.281 572.956 525.905 577.105 525.695 577.825C525.528 578.391 524.613 581.239 527.661 581.336M533.786 580.855C533.302 581.131 531.962 581.336 531.187 581.336C529.661 581.336 528.486 581.363 527.661 581.336M533.786 580.855C535.672 581.408 536.039 583.894 535.6 587.17C535.16 590.447 537.233 595.842 537.706 596.893C538.128 597.827 540.586 600.595 537.813 601.874M527.661 581.336C525.698 584.478 531.527 589.09 531.75 594.105C531.93 598.153 531.857 601.617 534.299 602.297M537.813 601.874C537.468 602.033 537.041 602.17 536.519 602.276C535.61 602.462 534.883 602.459 534.299 602.297M537.813 601.874C539.129 602.26 539.462 603.79 539.839 606.506C540.215 609.221 541.882 612.933 541.881 615.57C541.881 616.856 543.47 622.694 541.881 623.106C540.69 623.415 539.299 617.532 538.411 615.855C537.286 613.731 532.161 602.606 534.299 602.297M544.875 564.5C548.23 570.546 552.508 576.383 548.345 578.167C548.214 578.223 548.084 578.278 547.956 578.333M537.75 567.75C538.241 569.194 540.745 572.965 540.898 576.914C540.984 579.124 542.002 579.812 543.61 579.677M547.956 578.333C547.887 578.361 547.819 578.39 547.751 578.418M547.956 578.333C547.889 578.358 547.821 578.386 547.751 578.418M547.956 578.333C550.76 577.269 550.902 581.929 550.864 582.935C550.825 583.965 552.951 593.034 553.752 594.308C554.543 595.565 556.516 597.546 554.06 598.495M547.751 578.418C546.158 579.082 544.739 579.582 543.61 579.677M554.06 598.495C554.026 598.508 553.992 598.521 553.956 598.533C553.812 598.585 553.666 598.639 553.519 598.694M554.06 598.495C553.891 598.53 553.711 598.596 553.519 598.694M554.06 598.495C555.097 598.278 555.684 599.233 555.764 601.272C555.856 603.641 556.919 609.519 557.488 611.015C558.188 612.856 558.332 617.113 558.188 618.503C558.044 619.893 559.827 625.731 558.188 625.731C556.549 625.731 556.464 619.955 555.764 619.231C555.063 618.506 554.229 614.157 553.519 611.606C552.756 608.863 549.498 602.674 550.521 599.602M543.61 579.677C541.75 581.598 543.595 584.207 544.087 585.651C544.578 587.096 548.905 591.728 548.574 596.448C548.391 599.067 549.263 599.709 550.521 599.602M553.519 598.694C552.483 599.082 551.407 599.527 550.521 599.602M559.125 560.75C562.536 565.625 564.279 567.653 561.58 569.106M561.58 569.106C561.171 569.327 560.647 569.535 559.998 569.743C558.739 570.148 557.777 570.467 557.032 570.645C555.571 571.412 557.458 575.146 558.536 576.982C559.614 578.817 562.178 583.63 562.536 586.007C562.793 587.712 563.462 589.017 565.023 589.113M561.58 569.106C563.131 569.12 563.61 567.292 564.661 573.357C565.712 579.422 565.411 578.982 566.828 582.082C568.129 584.929 570.217 586.614 568.338 588.043M568.338 588.043C568.067 588.249 567.729 588.44 567.318 588.613C566.394 589.001 565.639 589.151 565.023 589.113M568.338 588.043C569.785 587.623 569.533 590.935 569.786 592.481C570.038 594.026 572.379 601.872 572.036 603.606C571.692 605.34 574.286 612.981 572.036 612.981C569.786 612.981 569.056 605.606 568.036 604.481C567.016 603.356 565.805 594.346 565.536 592.481C565.267 590.615 564.586 589.603 565.023 589.113M570.75 537.125C572.135 538.079 575.914 540.078 575.736 541.614C575.714 541.799 575.659 542.022 575.576 542.265M567.625 542.625C569.112 542.431 570.153 543.25 571.225 544.723C571.998 545.786 572.885 545.68 573.667 545.086M575.576 542.265C577.422 543.915 578.286 545.085 579.169 545.978C580.052 546.871 583.211 548.414 582.374 549.51C581.536 550.606 579.496 548.918 577.256 547.74C575.576 546.856 574.615 545.912 573.667 545.086M575.576 542.265C575.257 543.195 574.525 544.434 573.667 545.086M371.5 961.375C366 992.775 362.959 1022.04 362.125 1032.75M293.375 39.8752C296.375 21.2502 302.75 11.6252 313.125 15.2502C323.5 18.8752 334.75 28.5 329.875 37.75C325 47 323.625 53 326.75 57.625C328.145 59.689 329.365 62.6491 330.089 65.75M330.089 65.75C323.625 57.625 321.5 56.375 315.625 56.25C309.973 56.1297 301.776 61.9101 301.162 69.25M330.089 65.75C330.599 67.9349 330.863 70.1896 330.767 72.25M323.625 83.3743C321.763 84.5958 319.866 85.4678 318.375 86C314.875 87.25 305.875 93.5 304.5 96.375C305.25 90.625 306.25 88.875 308.875 83.0867M323.625 83.3743C317.591 85.8838 312.606 85.2455 308.875 83.0867M323.625 83.3743C325.807 81.9429 327.94 80.0317 329.309 77.625M301.162 69.25C301.138 69.5393 301.125 69.8311 301.125 70.125C301.125 74.5641 303.873 80.1922 308.875 83.0867M301.162 69.25C301.167 68.546 301.154 67.8663 301.125 67.2087M293.5 69.625C294.375 69.625 295.931 70.8914 297.125 72.4534M297.125 72.4534C297.325 69.8907 299.845 67.3333 301.079 66.375M297.125 72.4534C298.091 73.7155 299.001 75.0483 299.813 76.5M297.875 55.625C299.732 58.719 300.787 62.0683 301.079 66.375M301.079 66.375C301.098 66.649 301.113 66.9268 301.125 67.2087M299.813 76.5C301.929 80.2819 303.375 85.3715 303.375 91.625M299.813 76.5C300.125 71.375 299.5 69.2923 301.125 67.2087M332 75.5C331.959 73.7083 331.925 66.725 331.125 53.125C330.699 45.875 333 33.875 335.75 33.5C338.228 33.1622 342.25 35 341.5 70.125C341 76.5 339.125 81.2726 337.625 80.625C333.5 79.125 332.25 76.75 330.767 72.25M330.767 72.25C330.695 73.8181 330.414 75.2736 329.875 76.5C329.706 76.8863 329.516 77.2613 329.309 77.625M298.625 151.125C300.625 148 302.875 145.625 310 140.375C317.125 135.125 319.5 124.25 317.75 119.375C317.395 118.384 316.806 117.087 316.057 115.625M293.25 143.25C297.125 143.25 301.75 143.375 304.5 137.625C305.216 136.128 305.856 134.665 306.431 133.125M310.148 118.5C310.271 117.511 310.388 116.472 310.5 115.375M310.148 118.5C310.142 118.576 310.132 118.652 310.12 118.728M310.148 118.5C310.139 118.576 310.129 118.653 310.12 118.728M310.12 118.728C309.728 121.164 306.633 123.75 302.875 123.75C301.372 123.75 300.151 123.637 299 123.499M310.12 118.728C309.324 124.953 307.826 129.386 306.431 133.125M299 123.499C301.9 126.7 305.162 131.25 306.431 133.125M299 123.499C297.796 123.354 296.668 123.182 295.375 123.082M293.25 123C294.022 123 294.72 123.032 295.375 123.082M295.375 123.082C295.075 127.716 293.834 136.208 293.25 139.875M293.25 144.875C295.75 144.875 298.625 145.125 298.625 146.875C298.625 148.625 295.25 149 293.25 149M307.559 102.5C306.332 101.03 305.404 99.7141 304.375 99C302.75 101.5 297.875 100 296.375 100.625C294.875 101.25 294.375 101.25 293.25 101.25C293.625 101.25 294.5 101.175 295 100.875M307.559 102.5C307.817 101.423 308.279 100.365 308.875 99.3486M307.559 102.5C308.606 103.754 309.688 105.211 310.743 106.75M329.309 77.625C329.418 77.7864 329.504 77.9532 329.57 78.125M329.57 78.125C331.139 82.2105 321.134 89.0605 318.375 90.5C316.064 91.7062 311.327 95.1758 308.875 99.3486M329.57 78.125C331.75 80.25 330.868 82.5 329.309 84.25C327.75 86 315.5 98.4473 308.875 99.3486M336.875 102.5C337.125 98.3333 337.775 89.2 338.375 86C339.125 82 335.125 83.0867 334.375 84.25C333.81 85.1277 330.611 88.8794 328 91.9034M310.743 106.75C313.349 104.35 316.5 102.083 317.75 101.25L311.75 108.257M310.743 106.75C311.082 107.245 311.419 107.749 311.75 108.257M311.75 108.257C312.02 108.669 312.285 109.084 312.547 109.5M312.547 109.5C312.862 110 313.17 110.502 313.47 111M312.547 109.5C313.287 108.651 313.977 107.861 314.621 107.125M328 91.9034C327.151 92.8873 326.364 93.7942 325.75 94.5C323.794 96.7494 322.757 97.851 317.75 103.552M328 91.9034C328.059 95.807 328.227 98.5958 328.312 100.625M313.47 111C315.105 111.25 318.85 111.425 320.75 110.125C322.884 108.665 326.429 107.105 327.672 105.625M313.47 111C314.441 112.614 315.326 114.199 316.057 115.625M316.057 115.625C316.813 115.625 317.59 115.485 318.375 115.248M335.5 113.375C334.542 112.292 332.05 110.075 329.75 109.875C327.315 109.663 322.727 113.936 318.375 115.248M318.375 115.248C324 114.625 327.5 112.625 329.125 112.75C330.75 112.875 331.875 112.75 334.875 117.375M317.75 103.552C321.75 100.875 326.249 99.25 328.312 100.625M317.75 103.552C316.846 104.582 315.813 105.761 314.621 107.125M328.312 100.625C328.409 102.935 328.4 104.26 328 105.125C327.924 105.29 327.813 105.457 327.672 105.625M314.621 107.125C318.125 104.875 323.968 104.75 327.672 105.625M293.375 83.875C298.125 85.125 305.625 89.125 304.375 99.625M307.875 166.25C306.875 157.5 305.75 148.875 311.25 142.5M389.626 180.375C382.626 181.5 373.376 189.625 361.876 191.75C358.422 192.388 354.179 193.083 349.875 193.715M332.876 135.5C331.573 138.322 330.412 140.931 329.376 143.375M329.376 143.375C325.638 152.19 323.523 158.845 322.25 165.5C321.638 168.703 320.706 173.752 319.722 178.875M329.376 143.375C324.328 152.36 319.747 166.382 316.638 176.5M349.875 193.715C343.821 194.605 337.646 195.371 333.375 195.685M349.875 193.715C349.404 193.651 348.945 193.586 348.5 193.521M327.111 193C327.298 194.499 327.594 195.433 328.001 195.625C328.59 195.902 330.572 195.891 333.375 195.685M327.111 193C326.873 191.088 326.812 188.256 326.924 184.875M327.111 193C328.923 194.6 332.042 195.457 333.375 195.685M326.924 184.875C327.008 182.34 327.19 179.496 327.467 176.5M326.924 184.875C329.847 186.837 331.882 188.36 334.25 189.607M317.884 188.125C316.912 192.781 316.062 196.342 315.625 196.875C314.5 198.25 307.75 200.25 306.625 199.75C305.5 199.25 311.125 193.875 313.375 187.125C313.58 186.51 313.82 185.753 314.091 184.875M317.884 188.125L314.091 184.875M317.884 188.125C318.473 185.301 319.108 182.074 319.722 178.875M314.091 184.875C314.758 182.713 315.619 179.816 316.638 176.5M319.722 178.875L316.638 176.5M296 208.875C299.25 200.75 301.5 200.5 302.5 196.375C302.543 196.201 302.59 195.969 302.642 195.685M332.876 122.25C329.12 127.739 324.03 133.821 317.375 138.667M317.375 138.667C315.391 140.113 313.269 141.448 311 142.625M317.375 138.667C311.386 149.176 307.625 166.022 305.346 178.875M308.375 146.875C306.417 148.544 303.826 149.918 300.75 150.777M300.75 150.777C300.769 151.105 300.786 151.43 300.803 151.75M300.75 150.777C299.72 151.065 298.635 151.295 297.5 151.459M305.346 178.875C301.144 173.966 301.727 169.057 300.803 151.75M305.346 178.875C303.938 186.814 303.096 193.229 302.642 195.685M300.803 151.75C300.75 168.875 301.409 188.87 302.642 195.685M297.5 151.459C296.188 151.649 294.81 151.75 293.375 151.75M297.5 151.459C296.75 166.375 296 177.625 296 186.625C296 195.625 296.625 197.625 296.625 199.75C296.625 201.879 296.5 206.125 293.375 206.125M348.5 193.521C348.728 193.25 348.936 192.969 349.125 192.679M348.5 193.521C341.196 192.453 337.424 191.278 334.25 189.607M329.855 159.875C330.691 155.717 331.699 151.793 332.876 148.5M329.855 159.875C332.876 171.875 336.5 178 340 181.875C342.8 184.975 347.25 190.369 349.125 192.679M329.855 159.875C328.761 165.312 327.961 171.15 327.467 176.5M335.875 156.5C345.881 170.001 354.259 184.82 349.125 192.679M327.467 176.5C329.854 184.25 332.25 187.714 334.25 189.607M359.251 322.375C349.251 323.25 348.501 342.75 360.001 346.375M360.001 346.375C363.626 346.417 371.901 346.65 376.001 347.25M360.001 346.375C352.251 351.75 352.751 362.375 353.126 369.5C353.501 376.625 357.876 375.75 360.001 374.625M376.001 347.25C377.042 345.709 379.451 342.3 380.751 341C382.376 339.375 390.001 332.875 391.251 329.75M376.001 347.25C379.751 349 382.876 357.125 385.751 358.125M389.876 350.625C386.576 359.325 381.834 365.084 379.876 366.875C379.314 367.053 378.683 367.257 378.001 367.481M360.001 374.625C362.948 372.66 372.296 369.353 378.001 367.481M360.001 374.625C353.126 380 353.126 384 353.126 392.125C353.126 400.25 354.751 411.75 362.376 408.125M378.001 367.481C381.876 368.5 384.001 374.875 384.876 376.25M383.626 383.5C379.876 394 377.751 396.625 373.376 400.875C369.001 405.125 358.251 409 356.501 414.125C354.751 419.25 354.001 427.75 355.251 432.625C356.369 436.988 358.789 441.751 364.301 440.017M364.301 440.017C364.949 439.813 365.64 439.52 366.376 439.125M364.301 440.017C364.967 439.738 365.658 439.443 366.376 439.125M364.301 440.017C355.814 443.577 351.469 444.666 347.876 461.125C344.001 478.875 342.001 476.375 340.126 487.25C338.251 498.125 338.876 508.75 340.126 516.625M366.376 439.125C373.376 435.375 382.626 430.375 381.751 419.25M296.875 603.25C301.459 594.75 311.65 575.925 315.75 568.625C317.549 565.424 320.316 560.437 323.363 554.75M293.5 576.875L293.685 576.885C300.938 577.254 304.645 577.443 307 570.625C309.375 563.75 319.25 540.25 322.625 531.875C326 523.5 327.875 505.875 328.5 497.25C329.125 488.625 332 479 335 474.625C338 470.25 341.5 458.5 341.625 453C341.625 447.75 342.875 441.625 342.25 440.75L342.246 440.743C342.182 440.654 342.092 440.528 341.946 440.375M314.25 305.125C305.125 303.875 296.125 301.5 295.75 311.5C295.375 321.5 294.995 336.13 297.75 339C303.75 345.25 316.125 347.25 323 351.125C329.875 355 342.25 364.875 345.5 364.625C348.963 364.359 351.75 342.625 346.625 328.875C342.525 317.875 338.834 313.875 337.75 313.25M344.247 433.125C343.68 433.893 343.018 434.492 342.25 434.875C337.75 437.125 309.375 431 302 429.25C294.625 427.5 293.25 402.875 296.25 395.25C299.25 387.625 311 390.875 324 393C329.25 393.858 334.437 395.597 341.625 396.25C343.883 396.456 345.196 397.984 345.954 400.125M344.247 433.125C347.005 429.386 347.519 421.615 347 414.875C346.736 411.444 347.504 404.503 345.954 400.125M344.247 433.125C342.15 436.125 341.839 439.208 341.946 440.375M341.946 440.375C340.639 439.003 334.828 435.43 302.75 436M344.58 392.625C344.445 392.765 344.294 392.89 344.125 393C341.25 394.875 309.5 387.125 302 387.125C294.5 387.125 294.875 381.875 294.5 363.5C294.125 345.125 298 347.25 302 347.25C306 347.25 311.5 350 323 355.25C329 357.989 334.4 361.925 340 364.625C347 368 344.875 378.625 344.875 381.625C344.875 384.45 346.759 390.376 344.58 392.625ZM344.58 392.625C346.126 396.75 346.657 398.875 345.954 400.125M384.625 467C383.718 470.838 382.578 474.169 380.638 477.125M380.638 477.125C379.102 479.464 377.067 481.567 374.25 483.5C370.727 485.919 364.797 487.84 359.5 490.195M380.638 477.125C387.126 492.75 393.875 510.625 395.5 518.5M359.5 490.195C355.215 492.099 351.345 494.287 349.5 497.25C348.127 499.457 347.016 500.997 345.966 502.75M359.5 490.195C359.191 492.603 358.902 494.953 358.63 497.25M345.966 502.75C344.013 506.01 342.268 510.003 339.424 520.375M345.966 502.75C342.177 529.008 340.895 540.959 339.228 550.625M338.692 523.031C338.711 522.979 338.731 522.927 338.75 522.875C338.982 522.003 339.206 521.17 339.424 520.375M338.692 523.031C336.13 529.817 331.401 539.433 326.735 548.375M338.692 523.031C338.816 522.263 339.048 521.404 339.424 520.375M338.692 523.031C337.849 528.239 341.931 529.275 339.228 550.625M326.735 548.375C325.596 550.557 324.461 552.699 323.363 554.75M326.735 548.375C325.875 556.375 333.959 561.125 334.48 570.625M323.363 554.75C322.606 556.56 321.871 558.351 321.157 560.125M334.48 570.625C333.667 573.427 332.728 576.542 331.625 580.125C330.061 585.21 328.376 590.185 326.68 595.375M334.48 570.625C336.818 562.567 338.109 557.11 339.228 550.625M321.157 560.125C304.058 602.597 298.981 635.349 304.5 676.625M321.157 560.125C321 571.125 328.11 579.125 326.68 595.375M326.68 595.375C318.623 620.044 310.343 649.58 313.75 718.875M358.63 497.25C353.947 536.747 354.223 560.591 343 592.25C339.641 601.726 336.703 609.592 334.017 618M358.63 497.25C358.995 511.783 362.092 522.77 366.209 531.875M405.375 641C405 605.375 393.375 580.125 384.625 563.25C379.548 553.458 371.903 544.465 366.209 531.875M366.209 531.875C384.626 587.75 391.75 619 384.625 676.625C377.5 734.25 363.5 743.625 366.375 764.875C368.675 781.875 378.417 791.792 383 794.625M348.75 1028.04C359.25 977.788 361 916.5 364.25 891.875C367.5 867.25 371.625 842.25 375.375 826.125C375.912 823.819 376.476 821.692 377.063 819.625M387.625 835.625C384.625 860.25 388.375 885 381.375 916.5C375.775 941.7 363.084 1003.42 355 1030.67M334.017 618C327.208 639.318 322.025 664.123 315.75 727.5M334.017 618C328.751 649.75 333.875 706.75 339.75 742.375C345.625 778 344.125 784.875 337.125 789.75C333.538 792.248 329.754 788.936 326.749 783.75M326.749 783.75C323.889 778.816 321.735 772.186 321.125 767.25M326.749 783.75C333.125 799.25 334.25 817.5 339.75 827.5C345.25 837.5 352.625 837.625 353.375 855.75M333 837.375C336.2 848.775 344.084 860.875 347.75 865.5M333 848.375C333 859.375 342.25 863.625 346 876.5C349.395 888.154 350.126 903.598 349.308 924.5M389 763.25C386.213 786.361 383.295 798.448 380.603 807.75M380.603 807.75C379.319 814.92 382.549 830.019 391.047 840.25M380.603 807.75C379.364 812.03 378.173 815.721 377.063 819.625M391.047 840.25C392.328 841.792 393.728 843.223 395.25 844.5M391.047 840.25C393.625 889.125 398.469 878.125 391.047 918C383.625 957.875 372.375 1019.02 375.375 1035.26M343.375 1023.25C343.903 1028.21 364.631 1034.59 375.375 1035.26M375.375 1035.26C377.365 1035.38 379.012 1035.31 380.125 1035M349.308 924.5C349.222 926.689 349.119 928.939 349 931.25C348.745 936.235 348.505 941.522 348.255 947.03L348.251 947.125M349.308 924.5C348.062 938.2 337.417 946.875 332.25 949.5M348.251 947.125C347.28 968.528 346.156 993.24 343.375 1016.38M348.251 947.125C347.739 958.125 340.704 967.042 337.25 970.125M342.875 801C344.116 804.545 345.148 807.876 346 810.932M346 810.932C346.209 811.681 346.408 812.414 346.595 813.129M346 810.932C346 811.546 346.211 812.301 346.595 813.129M346.595 813.129C348.668 821.021 349.483 826.796 349.625 829.25M346.595 813.129C348.604 817.453 355.372 823.799 361.875 822.75C368.075 821.75 372.125 818.667 373.375 817.25M377.063 819.625C376.834 814.125 375.55 801.225 372.25 793.625M353.5 1039.21C352 1044.24 351.625 1048.43 351.625 1049.89M353.5 1039.21C351.502 1038.61 349.423 1038.03 347.25 1037.46M353.5 1039.21C356.454 1040.09 358.732 1040.73 361.375 1041.58M351.625 1049.89C349.537 1049.05 347.37 1048.24 345.125 1047.47M351.625 1049.89C354.576 1051.07 357.369 1052.33 360 1053.69M341.25 1036C343.33 1036.46 345.327 1036.95 347.25 1037.46M347.25 1037.46C346.15 1041.79 345.375 1045.94 345.125 1047.47M339.125 1045.5C341.183 1046.14 343.183 1046.79 345.125 1047.47M361.375 1041.58C361 1045.88 360 1051.61 360 1053.69M361.375 1041.58C367.136 1043.44 372.578 1045.3 377.625 1046.42M360 1053.69C362.29 1054.86 364.457 1056.11 366.5 1057.45M337.125 1058C341.701 1058.94 345.839 1059.93 349.625 1061.01M349.625 1061.01C353.407 1062.1 356.837 1063.28 360 1064.63M349.625 1061.01C345.75 1061.15 338.5 1066.88 337.625 1071.38M360 1064.63C359.383 1064.63 358.787 1064.64 358.211 1064.68M360 1064.63C360.17 1064.7 360.339 1064.77 360.508 1064.84M366.5 1057.45C369.784 1059.61 372.745 1061.99 375.375 1064.68M366.5 1057.45C369.988 1057.36 373.639 1056.76 376.625 1056.09M375.375 1064.68C377.103 1066.44 378.687 1068.33 380.125 1070.38M375.375 1064.68C377.675 1064.94 379.917 1064.33 380.75 1064M377.625 1046.42C378.901 1046.71 380.151 1046.95 381.375 1047.12M377.625 1046.42C377.725 1050.08 377 1054.39 376.625 1056.09M376.625 1056.09C378.949 1055.57 380.87 1055.01 382 1054.62M337.125 1078.62C340.652 1074.66 343.449 1071.65 346.125 1069.46M346.125 1069.46C347.25 1074.87 349.625 1076 349.625 1086.62M346.125 1069.46C349.36 1066.81 352.418 1065.36 356.375 1064.84M353.625 1097.12C354.25 1090.25 354 1081.75 352.75 1069C354.875 1078.12 356.75 1093 356.375 1097.88M356.375 1064.84C358.125 1078.62 359.5 1079.88 360 1085.38M356.375 1064.84C356.966 1064.77 357.576 1064.71 358.211 1064.68M358.211 1064.68C360.875 1078 364.25 1088.75 365.625 1095.75M360.508 1064.84C362.625 1072.37 368.25 1089.12 368.75 1095M360.508 1064.84C361.576 1065.31 362.614 1065.79 363.625 1066.29M363.625 1066.29C368.5 1079.25 373.75 1089.62 375.75 1095M363.625 1066.29C364.171 1066.56 366.084 1067.34 366.615 1067.62M366.615 1067.62C367.427 1068.06 366.846 1068.01 367.625 1068.48M366.615 1067.62C369.633 1075.03 374.558 1085.26 378.25 1094.38M367.625 1068.48C369.497 1069.6 371.28 1070.81 373 1072.14M367.625 1068.48C370.436 1075.34 378.489 1087.64 382 1095.62M373 1072.14C373.805 1072.76 374.596 1073.4 375.375 1074.07M373 1072.14C376.609 1082.26 380.124 1088.88 384.5 1095M375.375 1074.07C376.999 1075.47 378.574 1076.98 380.125 1078.62M375.375 1074.07C378.805 1084.27 385.625 1094.62 391.125 1098.75M342.375 313.875C357 317.625 363.75 327.375 372 330.75C380.25 334.125 389.625 333.5 391.5 326.75M503.625 461C513.925 477.9 523.5 497.375 527 505M527.375 478.75C528.075 485.35 532.334 498.75 534.375 504.625M488.375 489.625C494.275 499.725 499.167 510.5 500.875 514.625M499.25 495.25C505.85 502.75 510.417 507.375 511.876 508.75M501.125 491.625C504.525 495.625 512.084 503.991 515.375 507.574M482.375 426.375C490 447.25 488.625 450.25 500.875 471.625C510.675 488.725 517.042 501.917 519 506.375M516.375 431.125C516.75 447.375 517.875 460 522.5 469.125M518.75 442.375C518.75 449.125 520 460 522.5 465.875M498.875 495.875L503.625 487.25M522.751 462.625C521.626 474.5 523.125 489.638 529.75 504.888M493.125 364.25C503.875 393.125 504.25 401.875 507 418.75C509.75 435.625 515.375 460.75 522.5 473.5M457.125 426.5C472.25 455.875 473.625 459.25 477.25 464C480.15 467.8 499.084 496.356 508.251 510.19M448 435.5C466.625 464 476.5 473.625 484.625 484.5C491.125 493.2 500.667 506.458 504.625 512M441.75 398.875C453.625 421.375 468.75 447.75 484.75 463.125C497.55 475.425 510.584 497.833 515.5 507.5M498.75 517.75C502 509.75 525.125 503.5 536.625 505M503.75 544C507.237 531.175 508.987 527.776 518.638 522.066M518.638 522.066C518.675 522.044 518.6 522.089 518.638 522.066ZM518.638 522.066C518.576 521.038 518.488 519.967 518.375 518.908M518.638 522.066C518.713 523.312 518.75 524.495 518.75 525.514M503.75 529.625C506.693 523.128 512.039 521.56 518.375 518.908M518.375 518.908C518.5 518.856 518.625 518.803 518.75 518.75C521.354 517.649 524.218 516.567 527.125 515.658M535 513.723C532.842 515.457 530.163 517.348 527.366 519.307M535 513.723C532.448 514.149 529.768 514.832 527.125 515.658M535 513.723C536.469 513.478 537.896 513.318 539.25 513.265M527.366 519.307C524.471 521.336 521.45 523.437 518.75 525.514M527.366 519.307C527.319 518.359 527.219 516.566 527.125 515.658M527.366 519.307C527.369 519.376 527.363 519.248 527.366 519.307ZM518.75 525.514C514.243 528.982 510.632 532.379 510 535.25C509.735 536.455 509.484 538.389 509.255 540.75M509.255 540.75C511.625 534.125 515.5 533.125 518.375 531.375C520.035 530.365 523.226 527.255 525.75 524.647M509.255 540.75C508.702 546.443 508.278 554.614 508.094 561M539.25 513.265C539.418 513.258 539.585 513.253 539.75 513.25M539.25 513.265C538.092 514.496 536.622 516.04 535.208 517.625M557.75 522C555.917 521.542 550.775 520.7 544.875 521C543.729 521.058 542.645 521.25 541.625 521.526M535.208 517.625C532.045 521.17 529.157 524.925 530.625 525.875C531.81 526.641 533.81 525.155 536.625 523.625M535.208 517.625C537.75 519.5 539.125 521.052 541.625 521.526M541.625 521.526C539.742 522.036 538.076 522.836 536.625 523.625M536.625 523.625C544.875 522 551.25 519.787 565.75 528.162M565.75 528.162C566.5 529 567.022 529.996 567.625 530.75M565.75 528.162C563.875 527.037 562.875 524.875 561.125 523.625M567.625 530.75C560.066 529.375 555 532.625 553.375 534.875C552.241 536.445 546.479 540.817 540.424 541.104M567.625 530.75C568.125 531.375 569.281 533.1 568.976 534.125M508.094 561C507.959 565.698 507.954 569.431 508.125 570.5M508.094 561C508.532 559.651 509.115 558.266 509.794 556.875M525.75 524.647C526.725 523.64 527.601 522.708 528.25 522M525.75 524.647C523.25 528.794 524 530 524.157 534.875M524.157 534.875C524.519 534.677 524.919 534.563 525.375 534.552M524.157 534.875C523.877 535.029 523.619 535.233 523.375 535.482M525.375 534.552C526.061 534.534 526.874 534.744 527.875 535.239M525.375 534.552C526.23 538.959 529.07 544.092 531.5 548.057M541.625 564.375C539.959 561.667 536.175 555.525 534.375 552.625C533.663 551.478 532.626 549.892 531.5 548.057M527.875 535.239C528.932 535.761 530.2 536.6 531.75 537.818M527.875 535.239C529.04 539.697 532.628 544.864 535.75 549M544.875 564C543.5 561.167 540.075 554.625 537.375 551.125C536.86 550.457 536.313 549.745 535.75 549M531.75 537.818C532.071 538.071 532.404 538.339 532.75 538.625C533.864 539.544 535.043 540.173 536.25 540.57M531.75 537.818C534.75 544 540.625 548.25 544.875 551.125C545.769 551.729 546.695 552.361 547.625 553.019C547.637 553.027 547.648 553.035 547.66 553.044M536.25 540.57C540.625 545.25 545.5 548.625 551.125 551.75C555.625 554.25 558.834 557.625 559.875 559M536.25 540.57C537.622 541.02 539.031 541.17 540.424 541.104M559.875 559C559.125 563.375 553.5 562.5 550.296 561.5M559.875 559C560.625 554.625 562.375 564.25 562.625 566M523.375 535.482C522.657 536.214 522.063 537.326 521.375 538.625C521.015 539.306 520.499 540.128 519.875 541.062M523.375 535.482C523.425 540.017 523.377 544.531 523.675 549M519.875 541.062C518.316 543.4 516.083 546.443 513.927 549.75M519.875 541.062C519.801 546.775 520.261 553.491 521.657 559.625M513.927 549.75C512.512 560.907 512.255 565.302 513.348 569.763M513.927 549.75C512.429 552.047 510.968 554.471 509.794 556.875M513.348 569.763C513.357 569.801 513.366 569.838 513.375 569.875M513.348 569.763C512.274 570.439 511.047 570.684 509.997 570.464M513.348 569.763C513.862 569.44 514.342 569.017 514.75 568.5C516.625 566.125 516.75 571.5 520.25 578C520.028 575.645 520.625 577 519.14 572.5M509.794 556.875C509.365 561.751 509.748 567.941 509.997 570.464M509.997 570.464C509.998 570.476 509.999 570.488 510 570.5M509.997 570.464C509.241 570.305 508.576 569.905 508.125 569.25M519.14 572.5C518.828 566.81 518.537 560.602 518.375 556.875M519.14 572.5C519.875 572.5 523.25 572.75 523.125 571.5M523.125 571.5C523 570.25 526.25 571.625 528 570.75C529.75 569.875 530 566.75 531.25 568C531.508 568.257 531.85 568.69 532.235 569.25M523.125 571.5L523.111 571.461C522.087 568.732 521.377 566.84 521.657 559.625M532.235 569.25C533.722 571.411 534.353 573.349 534.75 576.625C535.292 576.042 537.55 576.3 536.25 573.5C536.154 573.248 536.061 572.998 535.969 572.75M532.235 569.25C528.625 563.5 524.85 553.875 523.675 549M523.675 549C524.134 555.881 525.412 562.657 529.125 569.25M531.5 548.057C531.789 553.987 532.079 559.654 534.028 566.75M521.657 559.625C522.598 563.759 523.963 567.629 525.875 570.75M534.028 566.75C536.25 567.5 539.25 567.75 539.375 567C539.5 566.25 538.75 564 540 564.375C541.25 564.75 545.5 565 546.125 563.25C546.578 561.982 547.293 563.142 548.081 564.875M534.028 566.75C534.547 568.638 535.183 570.627 535.969 572.75M535.75 549C542.5 556.125 546.536 557.875 548.081 564.875M548.081 564.875C548.38 565.534 547.771 566.027 548.081 566.75C549.481 570.35 550.171 575.042 550.296 575.875C550.283 574.635 551.07 571.254 550.991 569.625M547.66 553.044C551.145 555.512 554.684 558.351 556.75 561.5M547.66 553.044C548.925 553.965 549.761 557.447 550.296 561.5M550.296 561.5C550.645 564.15 550.865 567.044 550.991 569.625M550.991 569.625L551.018 569.613C553.019 568.742 556.253 573.128 556.875 573.75M535.969 572.75C537.125 571.5 540.25 575.875 541.125 577M540.424 541.104C542.021 542.405 543.7 543.538 545.375 544.512M560.5 557.75C559.5 555.25 560.625 549.75 556.75 549C554.92 548.646 552.449 547.901 549.75 546.725M545.375 544.512C551.125 543.75 554.375 540.125 557.125 539.25C559.875 538.375 566.576 535.75 568.976 534.125M545.375 544.512C546.857 545.372 548.335 546.108 549.75 546.725M568.976 534.125C568.694 535.073 572.477 538.717 572 539.75M549.75 546.725C554 545.625 556.375 543 557.125 542.625C557.875 542.25 569.818 542 572 539.75M572 539.75C570.689 542.587 564.6 542.902 562.875 544.75C561.075 544.75 558.792 545.333 557.875 545.625M293.25 429C296.25 429 302.875 431 302.875 436.875C302.875 442.75 297.625 446 293.25 446M451.125 388.25C461.25 396.875 469 403 475.375 409.5M423.375 345C430 365.125 434.709 377.708 435.875 381.125M454.125 380.625C460.425 385.325 469.5 388.333 473.25 389.25M422.875 344.875C432.375 365.475 438.25 374.375 440 376.25M421.125 338.75C426.875 354.125 431.375 363.125 442 371.625M411.375 251.25C429.375 272.875 438.75 291.125 443.5 308.875C448.25 326.625 455.625 353.5 454.375 373.375C454.375 376 454.875 381.375 453 385.25C451.125 389.125 438.125 400.625 437.625 407.75M432.875 385.25C433.917 383.708 436.875 379.825 440.375 376.625C444.71 372.662 439.72 365.632 436.952 361.733L436.875 361.625C435.234 359.312 428.383 349.474 420.76 337M405.625 309.625C410.11 318.948 415.611 328.575 420.76 337M420.76 337C421.644 343.25 427.5 361.25 430.75 373.375M457.25 277.625L458.5 303.625M475.625 378.125C475.625 373.541 475.45 362.8 474.75 356.5C473.875 348.625 471 325.375 460.25 307C455.65 299.136 451.622 292.074 446.618 285C439.93 275.544 431.498 266.066 417.625 254.625M478.75 327.5C480.625 337.125 479.75 343.125 480.375 346.125C481 349.125 482 355.25 480.375 362C478.75 368.75 471 389 472.875 400.5C474.75 412 487.375 439.5 500.75 457.25C511.45 471.45 520.875 483.416 524.25 487.625M342.375 198.375C359.75 196.375 370.25 194.75 377.375 193C380.405 192.256 384.181 190.472 388.875 188.85C395.221 186.657 403.245 184.76 413.375 186.125M386.25 372.375C391.25 353.5 391.375 322 392.625 305.5C393.875 289 397.25 278 403.25 260.875C404.25 273.958 406.125 304 405.625 319.5M393.125 300.888C382.603 309.215 364.45 316.822 337.625 313.25C291.625 307.125 297.75 269 298.125 245.625C298.5 222.25 309.5 207 314.75 203.5C320 200 329.5 199.25 343.25 198.375C346.5 198.164 350.25 201.75 354.375 203.5C358.5 205.25 361.625 203.5 375.375 208.125C389.125 212.75 396.5 224.5 401.75 229.125C407 233.75 412.625 236.75 418.125 255C412.225 252.2 404.75 246.333 401.75 243.75C402.129 248.374 402.647 254.789 403.125 261.5M300.625 98.125C299.667 97.7917 297.625 97.625 296.125 99.125M310.5 115.25C305.625 114.75 303.125 113.875 299.875 113.5C296.625 113.125 295.125 114.25 294.625 114.25H293.25M293.25 108.875C294.25 108.875 294.25 108.625 297.25 108.375C300.25 108.125 304.375 111.625 305.625 112.125M293.25 119.75C295 119.75 298.625 119.75 301 119.125M341.875 82.5C341.875 84.5 343.613 85.25 343.125 87.25C342.638 89.25 340 91.375 340 92.5M348 84.625C348.25 83 345.875 81 345 79.625C344.576 78.9584 344.387 78.4974 344.305 78M344.25 76C344.25 76.9016 344.217 77.4714 344.305 78M344.305 78C344.037 78.7917 343.525 80.7 343.625 82M348.875 88.75C348.25 90.2917 346.725 93.725 345.625 95.125M345 73.5C345.625 71.625 349.519 66.875 352.01 73.25M352.01 73.25C351.293 69.9792 349.253 68.6344 347.138 68.25C344.938 67.85 343.222 70.5 342.638 71.875C343.43 63.3333 344.388 44.3 341.888 36.5C338.763 26.75 324.488 0.5 293.238 0.5M352.01 73.25C352.225 74.2337 352.321 75.3916 352.263 76.75C352.013 82.625 350.513 90.875 348.388 94.5C346.263 98.125 344.013 105.5 341.013 105.125C338.013 104.75 337.513 103.25 337.138 102.375C336.763 101.5 336.888 104.125 336.388 107.25C335.888 110.375 335.25 118.875 332.888 121.875C332.833 127.97 332.762 138.403 332.781 145.375C332.79 148.842 332.822 151.453 332.888 152.25C333.138 155.25 339.513 159.375 346.388 163.375C353.263 167.375 365.138 172.75 379.263 177.625C393.388 182.5 398.513 180.125 413.013 186C414.003 186.401 414.956 186.784 415.875 187.154C428.437 192.212 434.872 194.95 444.888 209.625C455.638 225.375 456.638 246.625 456.638 257.625C456.638 266.425 457.055 274.792 457.263 277.875C460.93 283.875 468.763 297.525 470.763 304.125C473.263 312.375 480.138 329.625 482.263 340C484.388 350.375 486.638 352.375 492.138 362.625C497.638 372.875 504.138 383.75 511.263 409.375C518.388 435 521.263 459.625 525.388 473C529.513 486.375 539.513 513.125 540.638 514.625C541.763 516.125 548.263 518.25 549.513 518.625C550.513 518.925 553.347 520.083 554.638 520.625C559.138 522.5 559.375 522.375 561.125 523.625M293.25 603.25C294.533 603.25 295.74 603.176 296.875 603.034V616.125C296.75 641.875 302.625 667.5 305.125 679.75C305.879 683.443 307.087 688.771 308.421 694.625L308.724 695.959C311.753 709.248 315.288 724.762 315.625 730C315.986 735.586 317.905 748.705 319.37 757C319.937 760.213 320.436 762.703 320.75 763.75C321.875 767.5 321.25 789.375 322.5 799.125C323.75 808.875 329.5 818.875 332.5 834.75C335.5 850.625 327.5 872.25 326.125 889.25C324.75 906.25 324.375 925.5 331.75 948.25C339.125 971 343.25 1004.62 343.5 1019.12C343.75 1033.62 337.5 1046.75 337.125 1053.5C336.75 1060.25 337.75 1071.88 337.875 1074.88C338 1077.88 336.625 1078.62 336.625 1083.75C336.625 1088.88 339.5 1093 341.125 1097.12C341.869 1099.01 342.063 1100.17 341.743 1101.42M561.125 523.625C562.875 524.875 564.018 527 565.893 528.125C567.768 529.25 571.518 531 573.268 532.375C575.018 533.75 577.268 535.875 578.393 537.375C579.518 538.875 579.143 539.625 580.268 540.75C581.393 541.875 583.518 543.25 585.018 544.75C586.518 546.25 587.018 550.75 583.143 552.25C579.268 553.75 573.893 552.5 570.893 550.25C567.893 548 567.268 546.125 565.643 545C564.018 543.875 560.268 542.25 558.518 542.25C559.727 544.917 562.493 551.225 563.893 555.125C565.643 560 568.518 571.875 569.643 576.375C570.768 580.875 572.768 589.25 573.768 594.5C574.768 599.75 576.018 606.75 576.143 609.25C576.268 611.75 577.893 620.375 571.893 620.625C565.893 620.875 564.143 612.625 563.893 611.625C563.73 610.97 563.137 607.419 562.607 604.625C562.328 603.154 562.066 601.892 561.893 601.375C561.529 600.282 559.839 594.415 558.078 588.797C557.421 586.701 556.755 584.641 556.143 582.875C553.893 576.375 553.018 574 552.518 573.125C552.018 572.25 551.143 573.375 551.393 573.75C551.643 574.125 553.018 576.75 553.643 579.375C554.268 582 558.018 595.25 558.893 599.625C559.768 604 559.643 606 560.393 610.125C561.143 614.25 563.018 620.75 563.018 625.875C563.018 631 561.893 634.375 558.393 634.375C554.893 634.375 553.268 632 552.768 631.125C552.268 630.25 550.768 626.75 550.143 624C549.518 621.25 548.393 614.5 547.893 612.5C547.393 610.5 543.268 592.25 541.893 588.25C540.518 584.25 539.393 580.375 538.768 579.75C538.143 579.125 536.893 579.75 537.268 580.5C537.643 581.25 541.518 594.25 542.768 600.5C544.018 606.75 544.143 610.375 545.268 614.75C546.393 619.125 550.393 632.25 543.143 633.125C535.893 634 533.393 617.875 532.643 614.75C531.893 611.625 529.268 603.375 528.768 601C528.268 598.625 526.518 591.125 525.518 588.25C524.518 585.375 523.143 580.125 521.768 580.5C520.393 580.875 523.268 588.25 523.768 590C524.268 591.75 525.018 596.75 525.518 598.625C525.791 599.646 526.582 602.373 527.307 605.25C527.913 607.656 528.473 610.167 528.643 611.875C529.018 615.625 528.893 619 524.643 619.5C520.393 620 517.768 609.375 517.143 607.75C516.518 606.125 510.75 581.5 510.375 579.75M562.888 544.875C564.097 547.542 558.359 549.144 559.759 553.044M510.625 580.375C509.941 579.006 509.835 576.808 508.87 573.25C507.897 569.661 506.953 565.577 506.388 562.25C505.263 555.625 502.888 548.125 503.763 542C504.638 535.875 505.138 533.25 503.263 528.75C501.388 524.25 499.263 518.25 497.513 514.625C495.763 511 489.513 497.25 470.513 472.25C451.513 447.25 439.513 419.125 436.263 402.375C433.663 388.975 431.513 376.792 430.763 372.375C419.452 353.186 410.806 337.074 405.743 319.125C402.618 328.75 394.763 347.125 392.763 355.125C390.763 363.125 390.263 363.625 388.263 367.875L388.089 368.245C386.149 372.365 384.249 376.399 383.763 381.375C383.659 382.443 383.479 383.794 383.259 385.375C382.423 391.379 381.013 400.704 381.013 410.5C381.013 422.875 385.638 433.5 385.388 445.125C385.308 448.869 385.201 451.926 385.094 454.5C384.868 459.919 384.638 463.199 384.638 466.25C384.638 470.75 389.638 479.25 391.888 496.5C393.607 509.676 395.253 515.924 396.268 522.875C396.582 525.024 396.836 527.241 397.013 529.75C399.884 547.5 405.675 588.425 405.875 610.125C406.125 637.25 403.875 669.75 403.625 680.125C403.375 690.5 402 704.875 398.5 717.875C398.168 719.11 397.809 720.362 397.433 721.625C393.844 733.654 388.602 746.664 388.375 755.375C388.125 765 391.5 767.125 391.75 782C392 796.875 391.125 812.125 390.875 816.125C390.625 820.125 400.625 866.375 399 887.625C397.375 908.875 390.75 948.75 387.875 967.125C385 985.5 379 1018.25 380.25 1034.38C381.5 1050.5 382 1051.5 382 1055.12C382 1058.75 380.25 1064.25 380.25 1069C380.25 1073.75 379.625 1077.25 380.25 1078.62C380.875 1080 382.375 1081.38 383.5 1084.12C384.625 1086.88 384.125 1089.12 385.875 1091.25C386.328 1091.8 387.139 1092.44 388.165 1093.21C391.108 1095.41 394.75 1099.38 394.75 1105.5M347.25 1111.75C338.5 1111.75 340.556 1104.14 341.125 1102.99M341.125 1102.99C341.41 1102.42 341.616 1101.91 341.743 1101.42M341.125 1102.99C341.352 1102.48 341.558 1101.95 341.743 1101.42M401.75 246.375C399.25 245.5 399 249.75 399 254.75C399 259.75 399.375 269.875 392.375 284.625C385.375 299.375 373.375 311 371.875 311.5M293.375 435.375C294.875 435.375 295.125 436.125 295.125 436.75C295.125 437.375 294.125 437.875 293.375 437.875M215 961.375C220.5 992.775 223.542 1022.04 224.375 1032.75M293.125 39.8752C290.125 21.2502 283.75 11.6252 273.375 15.2502C263 18.8752 251.75 28.5 256.625 37.75C261.5 47 262.875 53 259.75 57.625C258.355 59.689 257.135 62.6491 256.411 65.75M256.411 65.75C262.875 57.625 265 56.375 270.875 56.25C276.527 56.1297 284.725 61.9101 285.338 69.25M256.411 65.75C255.901 67.9349 255.638 70.1896 255.733 72.25M262.875 83.3743C264.737 84.5958 266.635 85.4678 268.125 86C271.625 87.25 280.625 93.5 282 96.375C281.25 90.625 280.25 88.875 277.625 83.0867M262.875 83.3743C268.909 85.8838 273.894 85.2455 277.625 83.0867M262.875 83.3743C260.693 81.9429 258.56 80.0317 257.191 77.625M285.338 69.25C285.363 69.5393 285.375 69.8311 285.375 70.125C285.375 74.5641 282.627 80.1922 277.625 83.0867M285.338 69.25C285.334 68.546 285.346 67.8663 285.375 67.2087M293 69.625C292.125 69.625 290.569 70.8914 289.375 72.4534M289.375 72.4534C289.175 69.8907 286.656 67.3333 285.421 66.375M289.375 72.4534C288.41 73.7155 287.499 75.0483 286.687 76.5M288.625 55.625C286.769 58.719 285.713 62.0683 285.421 66.375M285.421 66.375C285.403 66.649 285.387 66.9268 285.375 67.2087M286.687 76.5C284.572 80.2819 283.125 85.3715 283.125 91.625M286.687 76.5C286.375 71.375 287 69.2923 285.375 67.2087M254.5 75.5C254.542 73.7083 254.575 66.725 255.375 53.125C255.801 45.875 253.5 33.875 250.75 33.5C248.273 33.1622 244.25 35 245 70.125C245.5 76.5 247.375 81.2726 248.875 80.625C253 79.125 254.25 76.75 255.733 72.25M255.733 72.25C255.806 73.8181 256.087 75.2736 256.625 76.5C256.795 76.8863 256.984 77.2613 257.191 77.625M287.875 151.125C285.875 148 283.625 145.625 276.5 140.375C269.375 135.125 267 124.25 268.75 119.375C269.106 118.384 269.694 117.087 270.444 115.625M293.25 143.25C289.375 143.25 284.75 143.375 282 137.625C281.284 136.128 280.644 134.665 280.07 133.125M276.352 118.5C276.229 117.511 276.112 116.472 276 115.375M276.352 118.5C276.359 118.576 276.369 118.652 276.381 118.728M276.352 118.5C276.362 118.576 276.371 118.653 276.381 118.728M276.381 118.728C276.772 121.164 279.868 123.75 283.625 123.75C285.128 123.75 286.349 123.637 287.5 123.499M276.381 118.728C277.176 124.953 278.675 129.386 280.07 133.125M287.5 123.499C284.6 126.7 281.338 131.25 280.07 133.125M287.5 123.499C288.705 123.354 289.832 123.182 291.125 123.082M293.25 123C292.478 123 291.78 123.032 291.125 123.082M291.125 123.082C291.425 127.716 292.667 136.208 293.25 139.875M293.25 144.875C290.75 144.875 287.875 145.125 287.875 146.875C287.875 148.625 291.25 149 293.25 149M278.941 102.5C280.168 101.03 281.097 99.7141 282.125 99C283.75 101.5 288.625 100 290.125 100.625C291.625 101.25 292.125 101.25 293.25 101.25C292.875 101.25 292 101.175 291.5 100.875M278.941 102.5C278.683 101.423 278.222 100.365 277.625 99.3486M278.941 102.5C277.894 103.754 276.812 105.211 275.758 106.75M257.191 77.625C257.083 77.7864 256.996 77.9532 256.93 78.125M256.93 78.125C255.361 82.2105 265.366 89.0605 268.125 90.5C270.437 91.7062 275.174 95.1758 277.625 99.3486M256.93 78.125C254.75 80.25 255.632 82.5 257.191 84.25C258.75 86 271 98.4473 277.625 99.3486M249.625 102.5C249.375 98.3333 248.725 89.2 248.125 86C247.375 82 251.375 83.0867 252.125 84.25C252.691 85.1277 255.89 88.8794 258.5 91.9034M275.758 106.75C273.152 104.35 270 102.083 268.75 101.25L274.75 108.257M275.758 106.75C275.418 107.245 275.082 107.749 274.75 108.257M274.75 108.257C274.481 108.669 274.215 109.084 273.954 109.5M273.954 109.5C273.639 110 273.331 110.502 273.031 111M273.954 109.5C273.213 108.651 272.523 107.861 271.88 107.125M258.5 91.9034C259.349 92.8873 260.136 93.7942 260.75 94.5C262.706 96.7494 263.744 97.851 268.75 103.552M258.5 91.9034C258.442 95.807 258.274 98.5958 258.188 100.625M273.031 111C271.395 111.25 267.65 111.425 265.75 110.125C263.617 108.665 260.072 107.105 258.829 105.625M273.031 111C272.059 112.614 271.175 114.199 270.444 115.625M270.444 115.625C269.688 115.625 268.91 115.485 268.125 115.248M251 113.375C251.958 112.292 254.45 110.075 256.75 109.875C259.185 109.663 263.774 113.936 268.125 115.248M268.125 115.248C262.5 114.625 259 112.625 257.375 112.75C255.75 112.875 254.625 112.75 251.625 117.375M268.75 103.552C264.75 100.875 260.252 99.25 258.188 100.625M268.75 103.552C269.654 104.582 270.688 105.761 271.88 107.125M258.188 100.625C258.091 102.935 258.101 104.26 258.5 105.125C258.576 105.29 258.688 105.457 258.829 105.625M271.88 107.125C268.375 104.875 262.532 104.75 258.829 105.625M293.125 83.875C288.375 85.125 280.875 89.125 282.125 99.625M278.625 166.25C279.625 157.5 280.75 148.875 275.25 142.5M196.875 180.375C203.875 181.5 213.125 189.625 224.625 191.75C228.078 192.388 232.321 193.083 236.625 193.715M253.625 135.5C254.927 138.322 256.088 140.931 257.125 143.375M257.125 143.375C260.863 152.19 262.978 158.845 264.25 165.5C264.862 168.703 265.794 173.752 266.778 178.875M257.125 143.375C262.173 152.36 266.753 166.382 269.862 176.5M236.625 193.715C242.679 194.605 248.854 195.371 253.125 195.685M236.625 193.715C237.097 193.651 237.555 193.586 238 193.521M259.389 193C259.203 194.499 258.907 195.433 258.5 195.625C257.911 195.902 255.928 195.891 253.125 195.685M259.389 193C259.628 191.088 259.689 188.256 259.577 184.875M259.389 193C257.578 194.6 254.458 195.457 253.125 195.685M259.577 184.875C259.492 182.34 259.311 179.496 259.034 176.5M259.577 184.875C256.654 186.837 254.619 188.36 252.25 189.607M268.617 188.125C269.589 192.781 270.439 196.342 270.875 196.875C272 198.25 278.75 200.25 279.875 199.75C281 199.25 275.375 193.875 273.125 187.125C272.92 186.51 272.681 185.753 272.41 184.875M268.617 188.125L272.41 184.875M268.617 188.125C268.027 185.301 267.392 182.074 266.778 178.875M272.41 184.875C271.742 182.713 270.881 179.816 269.862 176.5M266.778 178.875L269.862 176.5M290.5 208.875C287.25 200.75 285 200.5 284 196.375C283.958 196.201 283.91 195.969 283.858 195.685M253.625 122.25C257.38 127.739 262.471 133.821 269.125 138.667M269.125 138.667C271.109 140.113 273.232 141.448 275.5 142.625M269.125 138.667C275.114 149.176 278.875 166.022 281.154 178.875M278.125 146.875C280.084 148.544 282.674 149.918 285.75 150.777M285.75 150.777C285.732 151.105 285.714 151.43 285.697 151.75M285.75 150.777C286.781 151.065 287.866 151.295 289 151.459M281.154 178.875C285.356 173.966 284.773 169.057 285.697 151.75M281.154 178.875C282.562 186.814 283.405 193.229 283.858 195.685M285.697 151.75C285.75 168.875 285.091 188.87 283.858 195.685M289 151.459C290.312 151.649 291.69 151.75 293.125 151.75M289 151.459C289.75 166.375 290.5 177.625 290.5 186.625C290.5 195.625 289.875 197.625 289.875 199.75C289.875 201.879 290 206.125 293.125 206.125M238 193.521C237.773 193.25 237.565 192.969 237.375 192.679M238 193.521C245.305 192.453 249.077 191.278 252.25 189.607M256.646 159.875C255.81 155.717 254.801 151.793 253.625 148.5M256.646 159.875C253.625 171.875 250 178 246.5 181.875C243.7 184.975 239.25 190.369 237.375 192.679M256.646 159.875C257.74 165.312 258.539 171.15 259.034 176.5M250.625 156.5C240.62 170.001 232.242 184.82 237.375 192.679M259.034 176.5C256.646 184.25 254.25 187.714 252.25 189.607M227.25 322.375C237.25 323.25 238 342.75 226.5 346.375M226.5 346.375C222.875 346.417 214.6 346.65 210.5 347.25M226.5 346.375C234.25 351.75 233.75 362.375 233.375 369.5C233 376.625 228.625 375.75 226.5 374.625M210.5 347.25C209.458 345.709 207.05 342.3 205.75 341C204.125 339.375 196.5 332.875 195.25 329.75M210.5 347.25C206.75 349 203.625 357.125 200.75 358.125M196.625 350.625C199.925 359.325 204.667 365.084 206.625 366.875C207.186 367.053 207.817 367.257 208.5 367.481M226.5 374.625C223.553 372.66 214.205 369.353 208.5 367.481M226.5 374.625C233.375 380 233.375 384 233.375 392.125C233.375 400.25 231.75 411.75 224.125 408.125M208.5 367.481C204.625 368.5 202.5 374.875 201.625 376.25M202.875 383.5C206.625 394 208.75 396.625 213.125 400.875C217.5 405.125 228.25 409 230 414.125C231.75 419.25 232.5 427.75 231.25 432.625C230.131 436.988 227.712 441.751 222.199 440.017M222.199 440.017C221.551 439.813 220.861 439.52 220.125 439.125M222.199 440.017C221.534 439.738 220.843 439.443 220.125 439.125M222.199 440.017C230.686 443.577 235.032 444.666 238.625 461.125C242.5 478.875 244.5 476.375 246.375 487.25C248.25 498.125 247.625 508.75 246.375 516.625M220.125 439.125C213.125 435.375 203.875 430.375 204.75 419.25M289.625 603.25C285.042 594.75 274.85 575.925 270.75 568.625C268.952 565.424 266.184 560.437 263.138 554.75M293 576.875L292.815 576.885C285.562 577.254 281.855 577.443 279.5 570.625C277.125 563.75 267.25 540.25 263.875 531.875C260.5 523.5 258.625 505.875 258 497.25C257.375 488.625 254.5 479 251.5 474.625C248.5 470.25 245 458.5 244.875 453C244.875 447.75 243.625 441.625 244.25 440.75L244.255 440.743C244.319 440.654 244.409 440.528 244.554 440.375M272.25 305.125C281.375 303.875 290.375 301.5 290.75 311.5C291.125 321.5 291.505 336.13 288.75 339C282.75 345.25 270.375 347.25 263.5 351.125C256.625 355 244.25 364.875 241 364.625C237.537 364.359 234.75 342.625 239.875 328.875C243.975 317.875 247.667 313.875 248.75 313.25M242.254 433.125C242.821 433.893 243.483 434.492 244.25 434.875C248.75 437.125 277.125 431 284.5 429.25C291.875 427.5 293.25 402.875 290.25 395.25C287.25 387.625 275.5 390.875 262.5 393C257.25 393.858 252.063 395.597 244.875 396.25C242.617 396.456 241.305 397.984 240.547 400.125M242.254 433.125C239.495 429.386 238.982 421.615 239.5 414.875C239.764 411.444 238.997 404.503 240.547 400.125M242.254 433.125C244.351 436.125 244.661 439.208 244.554 440.375M244.554 440.375C245.861 439.003 251.672 435.43 283.75 436M241.92 392.625C242.055 392.765 242.207 392.89 242.375 393C245.25 394.875 277 387.125 284.5 387.125C292 387.125 291.625 381.875 292 363.5C292.375 345.125 288.5 347.25 284.5 347.25C280.5 347.25 275 350 263.5 355.25C257.5 357.989 252.1 361.925 246.5 364.625C239.5 368 241.625 378.625 241.625 381.625C241.625 384.45 239.742 390.376 241.92 392.625ZM241.92 392.625C240.375 396.75 239.844 398.875 240.547 400.125M201.875 467C202.782 470.838 203.923 474.169 205.863 477.125M205.863 477.125C207.398 479.464 209.434 481.567 212.25 483.5C215.774 485.919 221.704 487.84 227 490.195M205.863 477.125C199.375 492.75 192.625 510.625 191 518.5M227 490.195C231.285 492.099 235.155 494.287 237 497.25C238.374 499.457 239.484 500.997 240.534 502.75M227 490.195C227.309 492.603 227.598 494.953 227.871 497.25M240.534 502.75C242.487 506.01 244.232 510.003 247.076 520.375M240.534 502.75C244.324 529.008 245.606 540.959 247.273 550.625M247.809 523.031C247.789 522.979 247.769 522.927 247.75 522.875C247.518 522.003 247.294 521.17 247.076 520.375M247.809 523.031C250.37 529.817 255.1 539.433 259.766 548.375M247.809 523.031C247.684 522.263 247.453 521.404 247.076 520.375M247.809 523.031C248.652 528.239 244.569 529.275 247.273 550.625M259.766 548.375C260.904 550.557 262.039 552.699 263.138 554.75M259.766 548.375C260.625 556.375 252.541 561.125 252.021 570.625M263.138 554.75C263.894 556.56 264.63 558.351 265.344 560.125M252.021 570.625C252.833 573.427 253.773 576.542 254.875 580.125C256.439 585.21 258.125 590.185 259.82 595.375M252.021 570.625C249.683 562.567 248.391 557.11 247.273 550.625M265.344 560.125C282.443 602.597 287.519 635.349 282 676.625M265.344 560.125C265.5 571.125 258.39 579.125 259.82 595.375M259.82 595.375C267.877 620.044 276.158 649.58 272.75 718.875M227.871 497.25C232.554 536.747 232.278 560.591 243.5 592.25C246.859 601.726 249.798 609.592 252.484 618M227.871 497.25C227.505 511.783 224.409 522.77 220.291 531.875M181.125 641C181.5 605.375 193.125 580.125 201.875 563.25C206.953 553.458 214.598 544.465 220.291 531.875M220.291 531.875C201.875 587.75 194.75 619 201.875 676.625C209 734.25 223 743.625 220.125 764.875C217.825 781.875 208.083 791.792 203.5 794.625M237.75 1028.04C227.25 977.788 225.5 916.5 222.25 891.875C219 867.25 214.875 842.25 211.125 826.125C210.589 823.819 210.024 821.692 209.437 819.625M198.875 835.625C201.875 860.25 198.125 885 205.125 916.5C210.725 941.7 223.417 1003.42 231.5 1030.67M252.484 618C259.293 639.318 264.475 664.123 270.75 727.5M252.484 618C257.75 649.75 252.625 706.75 246.75 742.375C240.875 778 242.375 784.875 249.375 789.75C252.962 792.248 256.746 788.936 259.752 783.75M259.752 783.75C262.611 778.816 264.766 772.186 265.375 767.25M259.752 783.75C253.375 799.25 252.25 817.5 246.75 827.5C241.25 837.5 233.875 837.625 233.125 855.75M253.5 837.375C250.3 848.775 242.417 860.875 238.75 865.5M253.5 848.375C253.5 859.375 244.25 863.625 240.5 876.5C237.106 888.154 236.374 903.598 237.193 924.5M197.5 763.25C200.288 786.361 203.205 798.448 205.898 807.75M205.898 807.75C207.181 814.92 203.951 830.019 195.453 840.25M205.898 807.75C207.136 812.03 208.328 815.721 209.437 819.625M195.453 840.25C194.173 841.792 192.772 843.223 191.25 844.5M195.453 840.25C192.875 889.125 188.032 878.125 195.453 918C202.875 957.875 214.125 1019.02 211.125 1035.26M243.125 1023.25C242.598 1028.21 221.869 1034.59 211.125 1035.26M211.125 1035.26C209.135 1035.38 207.488 1035.31 206.375 1035M237.193 924.5C237.279 926.689 237.381 928.939 237.5 931.25C237.756 936.235 237.996 941.522 238.245 947.03L238.25 947.125M237.193 924.5C238.439 938.2 249.083 946.875 254.25 949.5M238.25 947.125C239.221 968.528 240.345 993.24 243.125 1016.38M238.25 947.125C238.762 958.125 245.797 967.042 249.25 970.125M243.625 801C242.384 804.545 241.353 807.876 240.5 810.932M240.5 810.932C240.291 811.681 240.093 812.414 239.905 813.129M240.5 810.932C240.5 811.546 240.29 812.301 239.905 813.129M239.905 813.129C237.832 821.021 237.018 826.796 236.875 829.25M239.905 813.129C237.897 817.453 231.129 823.799 224.625 822.75C218.425 821.75 214.375 818.667 213.125 817.25M209.437 819.625C209.666 814.125 210.95 801.225 214.25 793.625M233 1039.21C234.5 1044.24 234.875 1048.43 234.875 1049.89M233 1039.21C234.998 1038.61 237.077 1038.03 239.25 1037.46M233 1039.21C230.046 1040.09 227.768 1040.73 225.125 1041.58M234.875 1049.89C236.963 1049.05 239.13 1048.24 241.375 1047.47M234.875 1049.89C231.925 1051.07 229.132 1052.33 226.5 1053.69M245.25 1036C243.171 1036.46 241.174 1036.95 239.25 1037.46M239.25 1037.46C240.35 1041.79 241.125 1045.94 241.375 1047.47M247.375 1045.5C245.317 1046.14 243.317 1046.79 241.375 1047.47M225.125 1041.58C225.5 1045.88 226.5 1051.61 226.5 1053.69M225.125 1041.58C219.364 1043.44 213.922 1045.3 208.875 1046.42M226.5 1053.69C224.21 1054.86 222.043 1056.11 220 1057.45M249.375 1058C244.8 1058.94 240.661 1059.93 236.875 1061.01M236.875 1061.01C233.094 1062.1 229.663 1063.28 226.5 1064.63M236.875 1061.01C240.75 1061.15 248 1066.88 248.875 1071.38M226.5 1064.63C227.118 1064.63 227.714 1064.64 228.29 1064.68C228.924 1064.71 229.534 1064.77 230.125 1064.84C234.082 1065.36 237.141 1066.81 240.375 1069.46C243.052 1071.65 245.849 1074.66 249.375 1078.62M226.5 1064.63C226.33 1064.7 226.161 1064.77 225.993 1064.84C224.924 1065.31 223.886 1065.79 222.875 1066.29C222.329 1066.56 221.791 1066.84 221.261 1067.12C220.449 1067.56 219.654 1068.01 218.875 1068.48C217.003 1069.6 215.22 1070.81 213.5 1072.14C212.695 1072.76 211.905 1073.4 211.125 1074.07C209.502 1075.47 207.926 1076.98 206.375 1078.62M220 1057.45C216.717 1059.61 213.755 1061.99 211.125 1064.68M220 1057.45C216.513 1057.36 212.862 1056.76 209.875 1056.09M211.125 1064.68C209.398 1066.44 207.813 1068.33 206.375 1070.38M211.125 1064.68C208.825 1064.94 206.583 1064.33 205.75 1064M208.875 1046.42C207.599 1046.71 206.349 1046.95 205.125 1047.12M208.875 1046.42C208.775 1050.08 209.5 1054.39 209.875 1056.09M209.875 1056.09C207.552 1055.57 205.63 1055.01 204.5 1054.62M244.125 313.875C229.5 317.625 222.75 327.375 214.5 330.75C206.25 334.125 196.875 333.5 195 326.75M82.875 461C72.575 477.9 63 497.375 59.5 505M59.125 478.75C58.425 485.35 54.1666 498.75 52.125 504.625M98.125 489.625C92.225 499.725 87.3333 510.5 85.625 514.625M87.25 495.25C80.65 502.75 76.0833 507.375 74.625 508.75M85.375 491.625C81.975 495.625 74.4167 503.991 71.125 507.574M104.125 426.375C96.5 447.25 97.875 450.25 85.625 471.625C75.825 488.725 69.4583 501.917 67.5 506.375M70.125 431.125C69.75 447.375 68.625 460 64 469.125M67.75 442.375C67.75 449.125 66.5 460 64 465.875M87.625 495.875L82.875 487.25M63.7499 462.625C64.8749 474.5 63.375 489.638 56.75 504.888M93.375 364.25C82.625 393.125 82.25 401.875 79.5 418.75C76.75 435.625 71.125 460.75 64 473.5M129.375 426.5C114.25 455.875 112.875 459.25 109.25 464C106.35 467.8 87.4167 496.356 78.25 510.19M138.5 435.5C119.875 464 110 473.625 101.875 484.5C95.375 493.2 85.8333 506.458 81.875 512M144.75 398.875C132.875 421.375 117.75 447.75 101.75 463.125C88.95 475.425 75.9167 497.833 71 507.5M87.75 517.75C84.5 509.75 61.375 503.5 49.875 505M82.75 529.625C79.8079 523.128 74.4613 521.56 68.125 518.908C68.0004 518.856 67.8754 518.803 67.75 518.75C65.1467 517.649 62.2828 516.567 59.375 515.658C56.732 514.832 54.0527 514.149 51.5 513.723C50.0311 513.478 48.6041 513.318 47.25 513.265C47.0822 513.258 46.9155 513.253 46.75 513.25M46.75 513.25C47.875 511.75 56.987 486.375 61.112 473C65.237 459.625 68.112 435 75.237 409.375C82.362 383.75 88.862 372.875 94.362 362.625C99.862 352.375 102.112 350.375 104.237 340C106.362 329.625 113.237 312.375 115.737 304.125C117.737 297.525 125.57 283.875 129.237 277.875C129.445 274.792 129.862 266.425 129.862 257.625C129.862 246.625 130.862 225.375 141.612 209.625C151.629 194.95 158.064 192.212 170.625 187.154C171.545 186.784 172.498 186.401 173.487 186C187.987 180.125 193.112 182.5 207.237 177.625C221.362 172.75 233.237 167.375 240.112 163.375C246.987 159.375 253.362 155.25 253.612 152.25C253.678 151.453 253.71 148.842 253.719 145.375C253.738 138.403 253.668 127.97 253.612 121.875C251.25 118.875 250.612 110.375 250.112 107.25C249.612 104.125 249.737 101.5 249.362 102.375C248.987 103.25 248.487 104.75 245.487 105.125C242.487 105.5 240.237 98.125 238.112 94.5C235.987 90.875 234.487 82.625 234.237 76.75C234.179 75.3916 234.275 74.2337 234.491 73.25M46.75 513.25C45.625 514.75 38.3672 518.25 37.1172 518.625C36.1172 518.925 33.2838 520.083 31.9922 520.625C27.4922 522.5 27.2556 522.375 25.5056 523.625M293.25 429C290.25 429 283.625 431 283.625 436.875C283.625 442.75 288.875 446 293.25 446M135.375 388.25C125.25 396.875 117.5 403 111.125 409.5M163.125 345C156.5 365.125 151.792 377.708 150.625 381.125M132.375 380.625C126.075 385.325 117 388.333 113.25 389.25M163.625 344.875C154.125 365.475 148.25 374.375 146.5 376.25M165.375 338.75C159.625 354.125 155.125 363.125 144.5 371.625M175.125 251.25C157.125 272.875 147.75 291.125 143 308.875C138.25 326.625 130.875 353.5 132.125 373.375C132.125 376 131.625 381.375 133.5 385.25C135.375 389.125 148.375 400.625 148.875 407.75M153.625 385.25C152.583 383.708 149.625 379.825 146.125 376.625C141.79 372.662 146.781 365.632 149.548 361.733L149.625 361.625C151.266 359.312 158.118 349.474 165.741 337M180.875 309.625C176.39 318.948 170.889 328.575 165.741 337M165.741 337C164.856 343.25 159 361.25 155.75 373.375M129.25 277.625L128 303.625M110.875 378.125C110.875 373.541 111.05 362.8 111.75 356.5C112.625 348.625 115.5 325.375 126.25 307C130.85 299.136 134.878 292.074 139.882 285C146.571 275.544 155.003 266.066 168.875 254.625M107.75 327.5C105.875 337.125 106.75 343.125 106.125 346.125C105.5 349.125 104.5 355.25 106.125 362C107.75 368.75 115.5 389 113.625 400.5C111.75 412 99.125 439.5 85.75 457.25C75.05 471.45 65.625 483.416 62.25 487.625M244.125 198.375C226.75 196.375 216.25 194.75 209.125 193C206.095 192.256 202.32 190.472 197.625 188.85C191.28 186.657 183.255 184.76 173.125 186.125M200.25 372.375C195.25 353.5 195.125 322 193.875 305.5C192.625 289 189.25 278 183.25 260.875C182.25 273.958 180.375 304 180.875 319.5M193.375 300.888C203.898 309.215 222.051 316.822 248.875 313.25C294.875 307.125 288.75 269 288.375 245.625C288 222.25 277 207 271.75 203.5C266.5 200 257 199.25 243.25 198.375C240 198.164 236.25 201.75 232.125 203.5C228 205.25 224.875 203.5 211.125 208.125C197.375 212.75 190 224.5 184.75 229.125C179.5 233.75 173.875 236.75 168.375 255C174.275 252.2 181.75 246.333 184.75 243.75C184.372 248.374 183.854 254.789 183.375 261.5M285.875 98.125C286.833 97.7917 288.875 97.625 290.375 99.125M276 115.25C280.875 114.75 283.375 113.875 286.625 113.5C289.875 113.125 291.375 114.25 291.875 114.25H293.25M293.25 108.875C292.25 108.875 292.25 108.625 289.25 108.375C286.25 108.125 282.125 111.625 280.875 112.125M293.25 119.75C291.5 119.75 287.875 119.75 285.5 119.125M244.625 82.5C244.625 84.5 242.888 85.25 243.375 87.25C243.862 89.25 246.5 91.375 246.5 92.5M238.5 84.625C238.25 83 240.625 81 241.5 79.625C241.924 78.9584 242.113 78.4974 242.196 78M242.25 76C242.25 76.9016 242.283 77.4714 242.196 78M242.196 78C242.464 78.7917 242.975 80.7 242.875 82M237.625 88.75C238.25 90.2917 239.775 93.725 240.875 95.125M241.5 73.5C240.875 71.625 236.981 66.875 234.491 73.25M234.491 73.25C235.208 69.9792 237.248 68.6344 239.362 68.25C241.562 67.85 243.279 70.5 243.862 71.875C243.07 63.3333 242.112 44.3 244.612 36.5C247.737 26.75 262.013 0.5 293.263 0.5M293.25 603.25C291.967 603.25 290.76 603.176 289.625 603.034V616.125C289.75 641.875 283.875 667.5 281.375 679.75C280.621 683.443 279.413 688.771 278.08 694.625L277.776 695.959C274.748 709.248 271.213 724.762 270.875 730C270.515 735.586 268.596 748.705 267.131 757C266.563 760.213 266.064 762.703 265.75 763.75C264.625 767.5 265.25 789.375 264 799.125C262.75 808.875 257 818.875 254 834.75C251 850.625 259 872.25 260.375 889.25C261.75 906.25 262.125 925.5 254.75 948.25C247.375 971 243.25 1004.62 243 1019.12C242.75 1033.62 249 1046.75 249.375 1053.5C249.75 1060.25 248.75 1071.88 248.625 1074.88C248.5 1077.88 249.875 1078.62 249.875 1083.75M83.237 528.75C85.112 524.25 87.237 518.25 88.987 514.625C90.737 511 96.987 497.25 115.987 472.25C134.987 447.25 146.987 419.125 150.237 402.375C152.837 388.975 154.987 376.792 155.737 372.375C167.048 353.186 175.695 337.074 180.757 319.125C183.882 328.75 191.737 347.125 193.737 355.125C195.737 363.125 196.237 363.625 198.237 367.875L198.411 368.245C200.352 372.365 202.252 376.399 202.737 381.375C202.841 382.443 203.022 383.794 203.242 385.375C204.077 391.379 205.487 400.704 205.487 410.5C205.487 422.875 200.862 433.5 201.112 445.125C201.193 448.869 201.299 451.926 201.406 454.5C201.632 459.919 201.862 463.199 201.862 466.25C201.862 470.75 196.862 479.25 194.612 496.5C192.893 509.676 191.248 515.924 190.232 522.875C189.918 525.024 189.664 527.241 189.487 529.75C186.616 547.5 180.825 588.425 180.625 610.125C180.375 637.25 182.625 669.75 182.875 680.125C183.125 690.5 184.5 704.875 188 717.875C188.333 719.11 188.691 720.362 189.068 721.625C192.656 733.654 197.899 746.664 198.125 755.375C198.375 765 195 767.125 194.75 782C194.5 796.875 195.375 812.125 195.625 816.125C195.875 820.125 185.875 866.375 187.5 887.625C189.125 908.875 195.75 948.75 198.625 967.125C201.5 985.5 207.5 1018.25 206.25 1034.38C205 1050.5 204.5 1051.5 204.5 1055.12C204.5 1058.75 206.25 1064.25 206.25 1069C206.25 1073.75 206.875 1077.25 206.25 1078.62M184.75 246.375C187.25 245.5 187.5 249.75 187.5 254.75C187.5 259.75 187.125 269.875 194.125 284.625C201.125 299.375 213.125 311 214.625 311.5M293.125 435.375C291.625 435.375 291.375 436.125 291.375 436.75C291.375 437.375 292.375 437.875 293.125 437.875M73.1306 569.5C73.2293 574.042 76.1118 580.785 72.4696 582.105M67.2599 572.843C66.3174 576.146 65.0783 580.798 67.5323 582.23M67.5323 582.23C68.1164 582.572 69.1591 582.268 70.3106 582.24C70.7196 582.23 71.9714 582.286 72.4696 582.105M67.5323 582.23C65.65 582.508 66.6227 584.824 66.3321 587.141C66.0415 589.458 62.3902 596.46 64.5145 598.016C65.5893 598.803 66.6809 599.045 67.5323 598.776M72.4696 582.105C73.7021 583.499 72.1444 586.285 71.479 587.773C70.8136 589.26 69.3732 594.116 69.1008 596.556C68.9662 597.762 68.3637 598.513 67.5323 598.776M67.5323 598.776C68.1737 598.841 68.0977 601.758 67.1122 602.787C66.1266 603.817 65.6471 607.425 65.3853 608.222C65.1236 609.019 63.4915 615.955 61.9195 612.143C60.3476 608.332 63.1861 605.299 63.4558 602.839C63.7254 600.38 62.532 598.282 63.7831 597.339M52.0056 576.915C51.0245 579.534 51.7556 579.625 52.8445 580.855M61.2556 570C60.3496 572.956 60.7251 577.105 60.936 577.825C61.1021 578.391 62.0175 581.239 58.9695 581.337M52.8445 580.855C53.3288 581.131 54.6686 581.337 55.4431 581.337C56.9695 581.337 58.1445 581.363 58.9695 581.337M52.8445 580.855C50.9582 581.408 50.5915 583.894 51.0309 587.17C51.4703 590.447 49.3977 595.842 48.9241 596.893C48.503 597.827 46.0442 600.595 48.8175 601.874M58.9695 581.337C60.9325 584.478 55.1037 589.09 54.8804 594.105C54.7002 598.153 54.7732 601.617 52.3316 602.297M48.8175 601.874C49.1629 602.034 49.5895 602.17 50.1113 602.276C51.0204 602.462 51.7479 602.459 52.3316 602.297M48.8175 601.874C47.5013 602.26 47.1684 603.79 46.792 606.506C46.4156 609.221 44.749 612.933 44.7491 615.57C44.7492 616.856 43.1608 622.694 44.7492 623.106C45.9403 623.415 47.3315 617.532 48.2195 615.855C49.3446 613.731 54.4696 602.606 52.3316 602.297M41.7556 564.5C38.4005 570.546 34.1226 576.383 38.2859 578.167C38.4165 578.223 38.5462 578.279 38.6747 578.333M48.8806 567.75C48.3892 569.194 45.8859 572.965 45.7321 576.915C45.6461 579.124 44.6289 579.812 43.0203 579.677M38.6747 578.333C38.7433 578.362 38.8116 578.39 38.8796 578.418M38.6747 578.333C38.7415 578.358 38.8097 578.387 38.8796 578.418M38.6747 578.333C35.8702 577.269 35.7283 581.929 35.7664 582.935C35.8054 583.965 33.6796 593.034 32.8784 594.308C32.088 595.565 30.1146 597.546 32.5708 598.495M38.8796 578.418C40.4726 579.082 41.8919 579.582 43.0203 579.677M32.5708 598.495C32.6045 598.508 32.639 598.521 32.6744 598.533C32.8188 598.585 32.9648 598.639 33.1115 598.694M32.5708 598.495C32.7392 598.53 32.9196 598.596 33.1115 598.694M32.5708 598.495C31.5332 598.278 30.9461 599.233 30.8668 601.272C30.7745 603.642 29.7115 609.519 29.1425 611.015C28.4425 612.856 28.2988 617.113 28.4425 618.503C28.5862 619.893 26.8032 625.731 28.4425 625.731C30.0817 625.731 30.1661 619.955 30.8668 619.231C31.5675 618.506 32.4019 614.157 33.1115 611.606C33.8742 608.863 37.132 602.674 36.1092 599.602M43.0203 579.677C44.8803 581.598 43.0352 584.207 42.5438 585.651C42.0524 587.096 37.7259 591.728 38.0564 596.448C38.2397 599.067 37.368 599.709 36.1092 599.602M33.1115 598.694C34.1474 599.082 35.224 599.527 36.1092 599.602M27.5056 560.75C24.0946 565.625 22.3518 567.653 25.0501 569.106M25.0501 569.106C25.4592 569.327 25.9838 569.535 26.6324 569.743C27.892 570.148 28.8531 570.467 29.5981 570.645C31.0594 571.412 29.1728 575.146 28.0946 576.982C27.0165 578.817 24.4527 583.63 24.0946 586.008C23.838 587.712 23.1685 589.017 21.6076 589.113M25.0501 569.106C23.4995 569.121 23.0209 567.292 21.9696 573.357C20.9183 579.422 21.2196 578.982 19.803 582.082C18.502 584.929 16.4138 586.614 18.2926 588.043M18.2926 588.043C18.5636 588.249 18.9011 588.44 19.3124 588.613C20.2361 589.001 20.9913 589.151 21.6076 589.113M18.2926 588.043C16.8458 587.623 17.0971 590.935 16.8446 592.481C16.5922 594.026 14.2512 601.872 14.5946 603.606C14.9381 605.34 12.3446 612.981 14.5946 612.981C16.8446 612.981 17.5749 605.606 18.5946 604.481C19.6144 603.356 20.8254 594.346 21.0946 592.481C21.3639 590.615 22.0445 589.603 21.6076 589.113M15.8806 537.125C14.4957 538.079 10.7169 540.078 10.8949 541.614C10.9163 541.799 10.9714 542.022 11.0548 542.265M19.0056 542.625C17.5182 542.431 16.4776 543.25 15.4059 544.723C14.6329 545.786 13.746 545.68 12.9636 545.086M11.0548 542.265C9.20833 543.915 8.34462 545.085 7.46147 545.978C6.57832 546.871 3.41938 548.414 4.257 549.51C5.09462 550.606 7.13486 548.918 9.37486 547.74C11.0548 546.856 12.0156 545.912 12.9636 545.086M11.0548 542.265C11.3733 543.195 12.1056 544.434 12.9636 545.086M82.8801 544C79.3936 531.175 77.6436 527.776 67.9927 522.066M67.9927 522.066C67.9553 522.044 68.0303 522.089 67.9927 522.066ZM67.9927 522.066C68.0546 521.038 68.1421 519.967 68.2551 518.908C68.1305 518.856 68.0055 518.803 67.8801 518.75M67.9927 522.066C67.9176 523.312 67.8801 524.495 67.8801 525.514M51.6302 513.723C53.7888 515.457 56.4679 517.348 59.2645 519.307M59.2645 519.307C62.1597 521.336 65.1807 523.437 67.8801 525.514M59.2645 519.307C59.3115 518.36 59.4119 516.566 59.5051 515.659M59.2645 519.307C59.2611 519.376 59.2673 519.248 59.2645 519.307ZM67.8801 525.514C72.3876 528.982 75.9986 532.379 76.6301 535.25C76.8952 536.455 77.1464 538.39 77.3755 540.75M77.3755 540.75C75.0051 534.125 71.1301 533.125 68.2551 531.375C66.5957 530.365 63.405 527.255 60.8801 524.647M77.3755 540.75C77.9283 546.443 78.353 554.614 78.5366 561M46.8802 513.25C47.0457 513.253 47.2124 513.258 47.3802 513.265C48.539 514.496 50.0083 516.04 51.4226 517.625M28.8802 522C30.7135 521.542 35.8552 520.7 41.7552 521C42.902 521.058 43.9853 521.25 45.0052 521.526M51.4226 517.625C54.5852 521.17 57.4735 524.925 56.0052 525.875C54.8207 526.641 52.8207 525.155 50.0052 523.625M51.4226 517.625C48.8802 519.5 47.5052 521.052 45.0052 521.526M45.0052 521.526C46.8882 522.036 48.5549 522.836 50.0052 523.625M50.0052 523.625C41.7552 522 35.3806 519.787 20.8806 528.162M20.8806 528.162C20.1306 529 19.609 529.996 19.0056 530.75M20.8806 528.162C22.7556 527.037 23.7556 524.875 25.5056 523.625M19.0056 530.75C26.5644 529.375 31.6302 532.625 33.2552 534.875C34.3894 536.445 40.1516 540.817 46.2065 541.104M19.0056 530.75C18.5056 531.375 17.3498 533.1 17.6546 534.125M78.5366 561C78.6717 565.698 78.6762 569.431 78.5051 570.5M78.5366 561C78.0987 559.651 77.5158 558.266 76.8364 556.875M60.8801 524.647C59.9054 523.64 59.03 522.708 58.3802 522M60.8801 524.647C63.3801 528.794 62.6301 530 62.4731 534.875M62.4731 534.875C62.1111 534.677 61.7111 534.564 61.2551 534.552M62.4731 534.875C62.7537 535.029 63.0115 535.233 63.2551 535.482M61.2551 534.552C60.5693 534.534 59.7566 534.745 58.7551 535.239M61.2551 534.552C60.4007 538.959 57.5607 544.092 55.1302 548.057M45.0052 564.375C46.6718 561.667 50.4552 555.525 52.2552 552.625C52.9672 551.478 54.0048 549.892 55.1302 548.057M58.7551 535.239C57.6981 535.761 56.4307 536.6 54.8802 537.819M58.7551 535.239C57.59 539.697 54.002 544.864 50.8804 549M41.7552 564C43.1302 561.167 46.5552 554.625 49.2552 551.125C49.7705 550.457 50.3179 549.745 50.8804 549M54.8802 537.819C54.5592 538.071 54.2261 538.339 53.8802 538.625C52.7665 539.544 51.5878 540.173 50.3802 540.57M54.8802 537.819C51.8802 544 46.0052 548.25 41.7552 551.125C40.862 551.729 39.9356 552.361 39.0052 553.019C38.9937 553.027 38.9822 553.036 38.9707 553.044M50.3802 540.57C46.0052 545.25 41.1302 548.625 35.5052 551.75C31.0052 554.25 27.7968 557.625 26.7552 559M50.3802 540.57C49.0087 541.02 47.5998 541.17 46.2065 541.104M26.7552 559C27.5052 563.375 33.1301 562.5 36.3348 561.5M26.7552 559C26.0052 554.625 24.2556 564.25 24.0056 566M63.2551 535.482C63.9734 536.214 64.5676 537.326 65.2551 538.625C65.6155 539.306 66.1315 540.128 66.7551 541.062M63.2551 535.482C63.2059 540.017 63.2536 544.531 62.9555 549M66.7551 541.062C68.3145 543.4 70.5471 546.443 72.7037 549.75M66.7551 541.062C66.8298 546.775 66.3692 553.491 64.9736 559.625M72.7037 549.75C74.1183 560.907 74.3759 565.302 73.2828 569.763M72.7037 549.75C74.2016 552.047 75.6628 554.471 76.8364 556.875M73.2828 569.763C73.2736 569.801 73.2644 569.838 73.2551 569.875M73.2828 569.763C74.3569 570.439 75.5836 570.684 76.6337 570.464M73.2828 569.763C72.7682 569.44 72.2885 569.017 71.8801 568.5C70.0051 566.125 69.8805 571.5 66.3805 578C66.6027 575.645 66.0055 577 67.4902 572.5M76.8364 556.875C77.2657 561.752 76.8823 567.941 76.6337 570.464M76.6337 570.464C76.6325 570.476 76.6313 570.488 76.6301 570.5M76.6337 570.464C77.3901 570.305 78.0548 569.905 78.5051 569.25M67.4902 572.5C67.8023 566.81 68.093 560.602 68.2551 556.875M67.4902 572.5C66.7551 572.5 63.3801 572.75 63.5051 571.5M63.5051 571.5C63.6301 570.25 60.3801 571.625 58.6301 570.75C56.8801 569.875 56.6302 566.75 55.3802 568C55.1228 568.257 54.7806 568.69 54.3951 569.25M63.5051 571.5L63.5198 571.461C64.5439 568.732 65.2538 566.84 64.9736 559.625M54.3951 569.25C52.9083 571.411 52.2776 573.349 51.8806 576.625C51.3389 576.042 49.0802 576.3 50.3802 573.5C50.4761 573.248 50.57 572.998 50.6618 572.75M54.3951 569.25C58.0052 563.5 61.781 553.875 62.9555 549M62.9555 549C62.4967 555.881 61.2183 562.657 57.5052 569.25M55.1302 548.057C54.8411 553.987 54.552 559.654 52.6023 566.75M64.9736 559.625C64.033 563.759 62.6676 567.63 60.7551 570.75M52.6023 566.75C50.3801 567.5 47.3802 567.75 47.2552 567C47.1302 566.25 47.8802 564 46.6302 564.375C45.3802 564.75 41.1302 565 40.5052 563.25C40.0524 561.982 39.3372 563.142 38.5497 564.875M52.6023 566.75C52.0835 568.638 51.4471 570.628 50.6618 572.75M50.8804 549C44.1302 556.125 40.0943 557.875 38.5497 564.875M38.5497 564.875C38.2502 565.534 38.8597 566.027 38.5497 566.75C37.1497 570.35 36.4598 575.042 36.3348 575.875C36.348 574.635 35.5602 571.255 35.6396 569.625M38.9707 553.044C35.4851 555.512 31.9467 558.351 29.8802 561.5M38.9707 553.044C37.706 553.965 36.8691 557.447 36.3348 561.5M36.3348 561.5C35.9855 564.15 35.7654 567.044 35.6396 569.625M35.6396 569.625L35.6122 569.613C33.612 568.742 30.3778 573.128 29.7556 573.75M50.6618 572.75C49.5051 571.5 46.3806 575.875 45.5056 577M46.2065 541.104C44.6096 542.406 42.9304 543.538 41.2552 544.512M26.1306 557.75C27.1306 555.25 26.0052 549.75 29.8802 549C31.7101 548.646 34.1812 547.901 36.8802 546.725M41.2552 544.512C35.5052 543.75 32.2552 540.125 29.5052 539.25C26.7552 538.375 20.0541 535.75 17.6546 534.125M41.2552 544.512C39.7739 545.372 38.2957 546.108 36.8802 546.725M17.6546 534.125C17.9366 535.073 14.1531 538.717 14.6306 539.75M36.8802 546.725C32.6302 545.625 30.2552 543 29.5052 542.625C28.7552 542.25 16.813 542 14.6306 539.75M14.6306 539.75C15.9418 542.587 22.0305 542.902 23.7552 544.75C25.5552 544.75 27.8385 545.333 28.7552 545.625M25.5056 523.625C23.7556 524.875 22.612 527 20.737 528.125C18.862 529.25 15.112 531 13.362 532.375C11.612 533.75 9.36204 535.875 8.23704 537.375C7.11204 538.875 7.48704 539.625 6.36204 540.75C5.23704 541.875 3.11204 543.25 1.61204 544.75C0.112042 546.25 -0.387958 550.75 3.48704 552.25C7.36204 553.75 12.737 552.5 15.737 550.25C18.737 548 19.362 546.125 20.987 545C22.612 543.875 26.362 542.25 28.112 542.25C26.9037 544.917 24.137 551.225 22.737 555.125C20.987 560 18.112 571.875 16.987 576.375C15.862 580.875 13.862 589.25 12.862 594.5C11.862 599.75 10.612 606.75 10.487 609.25C10.362 611.75 8.73705 620.375 14.737 620.625C20.737 620.875 22.487 612.625 22.737 611.625C22.9008 610.97 23.4936 607.419 24.0237 604.625C24.3028 603.154 24.5646 601.893 24.737 601.375C25.1012 600.283 26.7917 594.415 28.5526 588.797C29.2093 586.702 29.8759 584.641 30.487 582.875C32.737 576.375 33.612 574 34.112 573.125C34.612 572.25 35.487 573.375 35.237 573.75C34.987 574.125 33.612 576.75 32.987 579.375C32.362 582 28.612 595.25 27.737 599.625C26.862 604 26.987 606 26.237 610.125C25.487 614.25 23.612 620.75 23.612 625.875C23.612 631 24.737 634.375 28.237 634.375C31.737 634.375 33.362 632 33.862 631.125C34.362 630.25 35.862 626.75 36.487 624C37.112 621.25 38.237 614.5 38.737 612.5C39.237 610.5 43.362 592.25 44.737 588.25C46.112 584.25 47.237 580.375 47.862 579.75C48.487 579.125 49.737 579.75 49.362 580.5C48.987 581.25 45.112 594.25 43.862 600.5C42.612 606.75 42.487 610.375 41.362 614.75C40.237 619.125 36.237 632.25 43.487 633.125C50.737 634 53.237 617.875 53.987 614.75C54.737 611.625 57.362 603.375 57.862 601C58.362 598.625 60.112 591.125 61.112 588.25C62.112 585.375 63.487 580.125 64.862 580.5C66.237 580.875 63.362 588.25 62.862 590C62.362 591.75 61.612 596.75 61.112 598.625C60.8397 599.646 60.0484 602.373 59.3235 605.25C58.7174 607.656 58.1578 610.167 57.987 611.875C57.612 615.625 57.737 619 61.987 619.5C66.237 620 68.862 609.375 69.487 607.75C70.112 606.125 75.8806 581.5 76.2556 579.75M23.7422 544.875C22.5338 547.542 28.2716 549.144 26.8716 553.044M76.0055 580.375C76.69 579.006 76.7959 576.808 77.7607 573.25C78.7339 569.661 79.6772 565.577 80.2422 562.25C81.3672 555.625 83.7422 548.125 82.8672 542C81.9922 535.875 81.375 533.25 83.25 528.75M229.752 1120.81C229.567 1120.86 229.399 1120.93 229.252 1121C227.652 1121.8 228.655 1125.38 228.655 1127.13C228.655 1129.38 228.655 1132.88 230.53 1132.88C232.795 1132.88 233.243 1130.46 233.537 1129.5C234.037 1127.88 235.905 1123.12 235.905 1121.99C235.905 1121.82 235.769 1121.65 235.53 1121.5M229.752 1120.81C228.627 1120 229.252 1114.25 229.252 1110.63C229.252 1107 227.53 1104.75 228.155 1100.13M229.752 1120.81C231.7 1120.24 234.319 1120.72 235.53 1121.5M235.53 1121.5C237.905 1121.38 238.723 1112.75 239.002 1109.63C239.28 1106.5 240.948 1104.89 239.002 1099.38M228.155 1100.13C228.372 1099.42 228.698 1098.9 229.162 1098.63C230.6 1097.76 235.526 1096.43 237.662 1097.5C238.237 1097.79 238.675 1098.45 239.002 1099.38M228.155 1100.13C227.037 1099.63 225.662 1097.13 226.912 1095.13C228.162 1093.13 231.552 1092.87 233.537 1092.63C235.537 1092.38 242.53 1092.25 239.002 1099.38M216.303 1122C216.474 1122.09 216.756 1122.12 216.756 1122.29C216.756 1123.88 215.184 1126.92 214.744 1129.13C214.304 1131.33 214.441 1133.13 212.405 1133.13C210.799 1133.13 211.263 1130.56 211.263 1129.63C211.263 1128.63 210.579 1123.86 210.799 1122.75C210.833 1122.59 210.999 1122.45 211.263 1122.34M216.303 1122C217.564 1121.43 219.829 1116.11 220.241 1112.36C220.654 1108.61 222.817 1108.68 222.28 1103.5M216.303 1122C214.504 1121.06 212.605 1121.81 211.264 1122.34L211.263 1122.34M211.263 1122.34C208.957 1121.77 212.207 1115.77 212.207 1111.75M212.207 1111.75C212.207 1107.73 212.803 1107.25 214.405 1101.71M212.207 1111.75C210.965 1111.44 210.028 1111.39 209.515 1111.13M222.28 1103.5C222.205 1102.77 221.987 1102.2 221.587 1101.83C220.345 1100.7 218.39 1099.51 216.086 1100.14C215.466 1100.31 214.907 1100.87 214.405 1101.71M222.28 1103.5C223.475 1103.23 224.624 1100.64 223.789 1098.44C222.955 1096.23 220.715 1095.91 218.818 1095.28C216.905 1094.64 212.339 1094.03 214.405 1101.71M205.759 1121.13C205.884 1121.22 206.1 1121.25 206.086 1121.41C205.954 1122.98 204.697 1123.65 204.172 1125.83C203.648 1128.02 203.307 1130.13 202.029 1129.82C200.752 1129.52 201.358 1127.31 201.436 1126.38C201.519 1125.39 201.174 1123.06 201.436 1121.97C201.476 1121.8 201.616 1121.66 201.829 1121.55M205.759 1121.13C206.783 1120.55 208.705 1115.65 209.336 1111.93C209.385 1111.65 209.445 1111.38 209.515 1111.13M205.759 1121.13C204.444 1120.24 202.912 1121.01 201.83 1121.55L201.829 1121.55M201.829 1121.55C200.092 1121.02 202.575 1112.69 202.699 1111.21C202.824 1109.72 202.244 1105.7 204.975 1100.69M204.975 1100.69C205.433 1099.85 205.913 1099.28 206.407 1099.1C208.242 1098.45 211.339 1099.61 212.207 1100.7C212.486 1101.05 212.607 1101.62 212.605 1102.34C212.591 1107.06 210.355 1108.08 209.515 1111.13M204.975 1100.69C204.013 1093.13 208.5 1094.08 209.927 1094.68C211.128 1094.91 213.53 1095.48 213.53 1095.88M197.681 1119.95C197.786 1120.03 197.972 1120.06 197.954 1120.21C197.78 1121.68 196.664 1122.31 196.127 1124.36C195.589 1126.41 195.905 1128.57 194.117 1128.1C192.674 1127.73 193.63 1125.74 193.733 1124.88C193.842 1123.95 193.631 1121.76 193.9 1120.73C193.941 1120.57 194.068 1120.45 194.257 1120.35M197.681 1119.95C198.592 1119.4 199.419 1114.83 200.107 1111.34C200.796 1107.86 203.1 1107.14 203.307 1102.34C203.336 1101.66 203.252 1101.13 203.023 1100.8C202.312 1099.78 200.695 1098.66 199.078 1099.28C198.643 1099.45 198.205 1099.98 197.776 1100.77M197.681 1119.95C196.575 1119.11 195.216 1119.83 194.257 1120.35L194.257 1120.35M194.257 1120.35C192.77 1119.84 195.239 1112.03 195.404 1110.64C195.568 1109.24 195.217 1105.47 197.776 1100.77M197.776 1100.77C197.681 1096.13 200.53 1094.76 202.299 1095.13C203.332 1095.35 204.931 1095.75 205.28 1096.13M191.112 1119.08C191.192 1119.15 191.343 1119.18 191.316 1119.31C191.061 1120.56 190.52 1121 190.178 1122.75C189.835 1124.5 189.908 1125.79 188.678 1125.83C186.824 1125.9 187.491 1123.88 187.491 1123.06C187.491 1122.26 187.646 1120.39 187.945 1119.53C187.991 1119.4 188.105 1119.3 188.268 1119.22M191.112 1119.08C191.902 1118.66 192.477 1114.69 193.309 1111.75C193.986 1110.25 195.322 1107.29 195.905 1106M191.112 1119.08C190.267 1118.3 189.095 1118.84 188.268 1119.22L188.268 1119.22M188.268 1119.22C187.085 1118.71 189.256 1112.07 189.498 1110.89C189.739 1109.71 190.847 1106.78 193.309 1102.91M193.309 1102.91C193.722 1102.26 194.122 1101.83 194.493 1101.71C195.323 1101.71 196.697 1101.99 197.28 1102.13M193.309 1102.91C193.586 1098.94 196.605 1098.08 198.03 1098.5M204.03 1095C205.905 1090.13 202.28 1090.75 207.655 1088.63C210.017 1087.69 212.595 1087.43 214.405 1088.04M216.77 1091.13C216.778 1092.16 216.405 1093.44 215.53 1095M216.77 1091.13C218.97 1088.49 225.168 1088.63 227.718 1090.38M216.77 1091.13C216.756 1089.51 215.813 1088.52 214.405 1088.04M222.28 1096.75C223.405 1097 226.205 1096.68 228.405 1093.38C229.225 1092.15 228.801 1091.12 227.718 1090.38M227.718 1090.38C230.621 1088.64 231.933 1087.62 232.952 1087.13M239.905 1095C240.239 1092.67 240.105 1087.83 236.905 1087.13C234.821 1086.67 234.06 1086.59 232.952 1087.13M214.405 1088.04C217.905 1086.5 227.873 1083.88 232.952 1087.13M223.53 1101.38C225.53 1102.28 227.28 1101.75 227.905 1101.38M241.655 1103.5C242.955 1107.1 240.572 1111.54 239.155 1111.75M229.155 1113.88C224.555 1114.48 221.73 1113.49 220.147 1113.24M240.405 1069.46L236.905 1086.63M232.905 1097.13L233.78 1069L230.155 1097.88M230.155 1064.84L226.53 1085.38M228.32 1064.68L220.905 1095.75M226.023 1064.84L217.78 1095M222.905 1066.29L210.78 1095M219.916 1067.63L208.28 1094.38M218.905 1068.48L204.53 1095.63M213.53 1072.14L202.03 1095M211.155 1074.07L195.405 1098.75M191.78 1105.5C191.78 1099.38 195.422 1095.41 198.365 1093.21C199.391 1092.44 200.203 1091.8 200.655 1091.25C202.405 1089.13 201.905 1086.88 203.03 1084.13L206.407 1078.12M239.28 1111.75C248.03 1111.75 245.974 1104.14 245.405 1102.99M249.905 1083.75C249.905 1088.88 247.03 1093 245.405 1097.13C244.661 1099.01 244.467 1100.17 244.788 1101.42M245.405 1102.99C245.121 1102.42 244.914 1101.91 244.788 1101.42M245.405 1102.99C245.178 1102.48 244.973 1101.95 244.788 1101.42M304.625 71.5C303.875 72 303.75 73.375 305.375 73.375C307.504 73.375 308.25 75.75 313.625 75.75C317.925 75.75 320.334 73.6667 321.25 72.625C320.496 71.7799 317.959 69.5726 315.625 68.8335C314.737 68.5522 313.77 68.375 312.75 68.375C311.725 68.375 310.748 68.5102 309.845 68.7248C306.677 69.4779 304.969 71.2711 304.625 71.5ZM352 283.125C353.75 277.625 357.25 276.875 361 277.25C364.75 277.625 370 280.625 368.875 285.875C367.75 291.125 363.5 292.5 360.25 292.25C357 292 350.625 290 352 283.125ZM281.875 71.5C282.625 72 282.75 73.375 281.125 73.375C278.996 73.375 278.25 75.75 272.875 75.75C268.575 75.75 266.167 73.6667 265.25 72.625C266.005 71.7799 268.541 69.5726 270.875 68.8335C271.763 68.5522 272.73 68.375 273.75 68.375C274.776 68.375 275.752 68.5102 276.655 68.7248C279.823 69.4779 281.532 71.2711 281.875 71.5ZM234.5 283.125C232.75 277.625 229.25 276.875 225.5 277.25C221.75 277.625 216.5 280.625 217.625 285.875C218.75 291.125 223 292.5 226.25 292.25C229.5 292 235.875 290 234.5 283.125Z" stroke="black" stroke-linecap="round" stroke-linejoin="round"/>
<path d="M128.5 303.689L129.74 277.894C129.95 274.86 130.375 275.235 130.375 266.479C130.375 262.643 138 238.854 148.75 223.104C155.638 215.048 167.25 204.558 175.625 198.44C177.625 196.979 177.125 197.354 177.625 196.979C182.125 193.797 191.78 186.722 198.125 188.914C202.82 190.536 206.595 192.32 209.625 193.064C216.75 194.814 227.25 196.439 244.625 198.439C241.375 198.228 236.75 201.815 232.625 203.565C228.5 205.315 225.375 203.565 211.625 208.19C197.875 212.815 190.5 224.565 185.25 229.19C180 233.815 174.375 236.815 168.875 255.065C155.003 266.506 147.071 275.608 140.382 285.064C135.378 292.139 133.1 295.826 128.5 303.689Z" fill="#CE4849"/>
<path d="M129.75 277.689L128.5 303.689C133.1 295.826 135.378 292.139 140.382 285.064C147.071 275.608 155.003 266.506 168.875 255.065C174.375 236.815 180 233.815 185.25 229.19C190.5 224.565 197.875 212.815 211.625 208.19C225.375 203.565 228.5 205.315 232.625 203.565C236.75 201.815 241.375 198.228 244.625 198.439C227.25 196.439 216.75 194.814 209.625 193.064C206.595 192.32 202.82 190.536 198.125 188.914C191.78 186.722 182.125 193.797 177.625 196.979C177.125 197.354 177.625 196.979 175.625 198.44C167.25 204.558 155.638 215.048 148.75 223.104C138 238.854 130.375 262.643 130.375 266.479C130.375 275.279 129.945 274.856 129.737 277.939" stroke="black" stroke-linecap="round" stroke-linejoin="round"/>
<path d="M458.125 303.689L456.885 277.894C456.675 274.86 456.25 275.235 456.25 266.479C456.25 262.643 448.625 238.854 437.875 223.104C430.987 215.048 419.375 204.558 411 198.44C409 196.979 409.5 197.354 409 196.979C404.5 193.797 394.845 186.722 388.5 188.914C383.805 190.536 380.03 192.32 377 193.064C369.875 194.814 359.375 196.439 342 198.439C345.25 198.228 349.875 201.815 354 203.565C358.125 205.315 361.25 203.565 375 208.19C388.75 212.815 396.125 224.565 401.375 229.19C406.625 233.815 412.25 236.815 417.75 255.065C431.622 266.506 439.554 275.608 446.243 285.064C451.247 292.139 453.525 295.826 458.125 303.689Z" fill="#CE4849"/>
<path d="M456.875 277.689L458.125 303.689C453.525 295.826 451.247 292.139 446.243 285.064C439.554 275.608 431.622 266.506 417.75 255.065C412.25 236.815 406.625 233.815 401.375 229.19C396.125 224.565 388.75 212.815 375 208.19C361.25 203.565 358.125 205.315 354 203.565C349.875 201.815 345.25 198.228 342 198.439C359.375 196.439 369.875 194.814 377 193.064C380.03 192.32 383.805 190.536 388.5 188.914C394.845 186.722 404.5 193.797 409 196.979C409.5 197.354 409 196.979 411 198.44C419.375 204.558 430.987 215.048 437.875 223.104C448.625 238.854 456.25 262.643 456.25 266.479C456.25 275.279 456.68 274.856 456.888 277.939" stroke="black" stroke-linecap="round" stroke-linejoin="round"/>
</svg>
