<svg viewBox="0 0 280 600" xmlns="http://www.w3.org/2000/svg">
  <!-- 배영 전면 근육 - 빨간색 강조 -->
  <!-- 코어 (core) -->
  <path id="core" d="M120 200 C120 195, 130 190, 140 190 C150 190, 160 195, 160 200 L160 270 C160 280, 150 290, 140 290 C130 290, 120 280, 120 270 Z" fill="#ef4444" opacity="0.8" />
  <!-- 전완 (forearms) -->
  <path id="forearms_l" d="M70 220 C65 230, 65 250, 70 260 C75 270, 85 275, 90 270 L90 220 Z" fill="#ef4444" opacity="0.8" />
  <path id="forearms_r" d="M210 220 C215 230, 215 250, 210 260 C205 270, 195 275, 190 270 L190 220 Z" fill="#ef4444" opacity="0.8" />
</svg>

