<svg viewBox="0 0 280 600" xmlns="http://www.w3.org/2000/svg">
  <!-- 기본 베이스 인체 모형 (전면) - 회색 톤 -->
  <g fill="#d1d5db" stroke="#9ca3af" strokeWidth="1.5" strokeLinejoin="round">
    <!-- 머리 -->
    <ellipse cx="140" cy="55" rx="28" ry="32" />
    <!-- 목 -->
    <path d="M125 85 C125 95, 130 100, 140 100 C150 100, 155 95, 155 85 L155 105 C155 115, 150 120, 140 120 C130 120, 125 115, 125 105 Z" />
    <!-- 상체 -->
    <path d="M85 105 C85 95, 105 90, 140 90 C175 90, 195 95, 195 105 L195 200 C195 220, 180 235, 140 235 C100 235, 85 220, 85 200 Z" />
    <!-- 골반 -->
    <path d="M105 235 C105 255, 120 270, 140 270 C160 270, 175 255, 175 235 L175 250 C175 270, 160 285, 140 285 C120 285, 105 270, 105 250 Z" />
    <!-- 좌팔 -->
    <path d="M50 140 C50 120, 65 110, 80 115 C90 118, 95 130, 95 145 L95 230 C95 245, 85 255, 70 255 C55 255, 50 240, 50 225 Z" />
    <!-- 우팔 -->
    <path d="M230 140 C230 120, 215 110, 200 115 C190 118, 185 130, 185 145 L185 230 C185 245, 195 255, 210 255 C225 255, 230 240, 230 225 Z" />
    <!-- 좌허벅지 -->
    <path d="M80 295 C75 340, 75 375, 85 420 C90 445, 100 465, 115 470 C130 475, 135 450, 135 420 L135 300 C135 285, 125 280, 115 280 C100 280, 85 285, 80 295 Z" />
    <!-- 우허벅지 -->
    <path d="M200 295 C205 340, 205 375, 195 420 C190 445, 180 465, 165 470 C150 475, 145 450, 145 420 L145 300 C145 285, 155 280, 165 280 C180 280, 195 285, 200 295 Z" />
    <!-- 좌종아리 -->
    <path d="M85 420 C80 450, 80 485, 85 520 C90 535, 100 550, 115 555 C130 560, 135 545, 135 530 L135 420 Z" />
    <!-- 우종아리 -->
    <path d="M195 420 C200 450, 200 485, 195 520 C190 535, 180 550, 165 555 C150 560, 145 545, 145 530 L145 420 Z" />
    <!-- 발 -->
    <ellipse cx="110" cy="575" rx="15" ry="8" />
    <ellipse cx="170" cy="575" rx="15" ry="8" />
  </g>
</svg>


