<svg viewBox="0 0 280 600" xmlns="http://www.w3.org/2000/svg">
  <!-- 평영 전면 근육 - 빨간색 강조 -->
  <!-- 내전근 (adductors) -->
  <path id="adductors" d="M125 300 C120 320, 120 350, 125 370 C130 380, 140 385, 150 380 L150 300 Z" fill="#ef4444" opacity="0.8" />
  <!-- 가슴 (chest) -->
  <path id="chest" d="M100 110 C100 105, 120 100, 140 100 C160 100, 180 105, 180 110 L180 140 C180 150, 170 160, 140 160 C110 160, 100 150, 100 140 Z" fill="#ef4444" opacity="0.8" />
  <!-- 삼두근 (triceps) -->
  <path id="triceps_l" d="M60 150 C55 160, 55 200, 60 220 C65 230, 75 235, 80 230 L80 150 Z" fill="#ef4444" opacity="0.8" />
  <path id="triceps_r" d="M220 150 C225 160, 225 200, 220 220 C215 230, 205 235, 200 230 L200 150 Z" fill="#ef4444" opacity="0.8" />
  <!-- 코어 (core) -->
  <path id="core" d="M120 200 C120 195, 130 190, 140 190 C150 190, 160 195, 160 200 L160 270 C160 280, 150 290, 140 290 C130 290, 120 280, 120 270 Z" fill="#ef4444" opacity="0.8" />
</svg>



